<?xml version="1.0" standalone="no"?>
<!DOCTYPE svg PUBLIC "-//W3C//DTD SVG 20010904//EN"
 "http://www.w3.org/TR/2001/REC-SVG-20010904/DTD/svg10.dtd">
<svg version="1.0" xmlns="http://www.w3.org/2000/svg"
 width="700.000000pt" height="700.000000pt" viewBox="0 0 700.000000 700.000000"
 preserveAspectRatio="xMidYMid meet">
<metadata>
Created by potrace 1.14, written by Peter Selinger 2001-2017
</metadata>
<g transform="translate(0.000000,700.000000) scale(0.100000,-0.100000)"
fill="#000000" stroke="none">
<path d="M3480 6428 c0 -11 -195 -572 -225 -648 -12 -30 -203 -576 -286 -815
-15 -44 -54 -156 -87 -250 -33 -93 -94 -269 -136 -390 -42 -121 -85 -242 -96
-270 -10 -27 -51 -142 -90 -255 -39 -113 -88 -252 -109 -310 -21 -58 -36 -108
-32 -111 3 -4 31 -10 61 -13 30 -4 82 -11 115 -16 33 -5 78 -12 100 -15 22 -3
58 -8 80 -12 22 -3 49 -7 60 -9 51 -7 100 -14 235 -34 80 -12 161 -24 180 -26
19 -2 60 -9 90 -14 30 -5 78 -12 105 -16 28 -3 53 -8 57 -10 4 -3 16 24 27 58
49 158 115 369 171 548 34 107 72 229 85 270 13 41 38 120 55 175 17 55 42
134 55 175 13 41 59 190 103 330 91 290 116 391 138 555 4 28 8 57 10 65 1 8
3 20 3 26 1 17 31 12 32 -5 0 -9 2 -25 4 -36 1 -11 6 -49 9 -85 3 -36 8 -75
10 -86 3 -12 7 -37 10 -55 18 -109 55 -257 83 -329 3 -8 7 -20 8 -26 2 -6 22
-72 45 -145 22 -74 59 -192 81 -264 22 -71 44 -141 49 -155 5 -14 25 -79 45
-145 20 -66 51 -167 70 -225 36 -115 87 -279 91 -295 1 -5 64 -208 139 -450
75 -242 159 -512 186 -599 27 -88 49 -163 49 -169 0 -5 6 -23 14 -40 7 -18 50
-153 96 -302 45 -148 93 -304 106 -345 136 -434 245 -790 313 -1012 l26 -88
657 0 656 0 -13 43 c-8 23 -50 148 -95 277 -45 129 -86 246 -90 260 -4 14 -47
138 -95 275 -47 138 -95 275 -105 305 -10 30 -57 168 -105 305 -48 138 -91
261 -95 275 -4 14 -47 138 -95 275 -48 138 -92 268 -100 290 -7 22 -52 153
-100 290 -48 138 -91 261 -95 275 -5 14 -49 144 -100 290 -50 146 -100 290
-110 320 -10 30 -55 161 -100 290 -45 129 -88 253 -95 275 -7 22 -52 153 -100
290 -122 353 -191 554 -231 675 -20 58 -39 114 -44 125 -5 11 -32 85 -59 165
-27 80 -71 208 -97 285 -26 77 -60 174 -74 215 l-26 75 -712 3 c-545 2 -712
-1 -712 -10z"/>
<path d="M785 3336 c-377 -137 -613 -362 -691 -656 -19 -69 -25 -259 -12 -338
24 -141 105 -289 222 -406 128 -127 292 -225 491 -291 88 -30 96 -30 275 10
36 8 79 16 95 19 17 3 82 17 145 31 63 14 126 28 140 30 14 3 111 23 215 45
105 22 235 50 290 61 55 11 116 24 135 29 19 5 53 12 75 16 22 3 43 8 46 10 3
2 21 6 40 9 19 3 86 17 149 30 63 13 127 27 143 30 63 12 84 16 117 25 19 5
48 11 64 14 38 7 413 85 446 93 32 8 94 21 175 37 11 2 54 12 95 21 41 8 95
20 120 25 25 5 56 12 70 15 14 2 50 10 80 17 69 15 59 13 100 21 19 4 44 9 55
11 11 3 67 14 124 25 57 12 106 23 110 25 3 2 22 7 41 10 19 3 112 21 205 41
94 20 181 39 195 41 14 3 68 14 120 25 52 11 102 22 110 24 8 2 53 11 100 21
47 9 88 20 92 23 4 4 -63 22 -150 40 -200 43 -494 107 -552 120 -47 11 -322
70 -475 102 -49 11 -99 22 -110 24 -29 7 -125 28 -320 70 -93 20 -201 43 -240
52 -38 8 -81 17 -95 19 -13 3 -61 14 -105 24 -45 11 -135 30 -201 44 -65 14
-204 44 -309 66 -104 23 -201 44 -215 46 -14 3 -41 9 -60 14 -19 5 -46 11 -60
14 -14 2 -79 16 -145 31 -306 66 -352 76 -380 81 -16 3 -37 7 -45 10 -8 3 -26
8 -40 10 -14 3 -99 21 -190 41 -91 19 -172 36 -180 38 -8 2 -58 13 -110 24
-52 12 -97 21 -100 21 -3 -1 -45 -16 -95 -34z"/>
<path d="M3037 1644 c-1 -1 -42 -4 -90 -8 -77 -5 -294 -29 -367 -41 -14 -2
-52 -7 -85 -11 -33 -5 -62 -9 -65 -9 -3 -1 -36 -5 -75 -10 -38 -5 -72 -10 -75
-10 -3 -1 -32 -5 -65 -9 -33 -4 -102 -14 -154 -22 -51 -8 -111 -17 -133 -20
-21 -3 -47 -7 -56 -9 -9 -2 -43 -6 -74 -10 -39 -5 -58 -12 -58 -21 0 -8 -4
-22 -10 -32 -8 -14 -196 -544 -286 -805 l-23 -67 653 0 652 0 178 533 c98 292
180 537 182 543 3 8 -5 11 -21 10 -15 0 -27 -2 -28 -2z"/>
</g>
</svg>
