<svg width="75" height="80" viewBox="0 0 75 80" fill="none" xmlns="http://www.w3.org/2000/svg">
<g clip-path="url(#clip0_960_829)">
<path d="M29.7775 19.0174H0V14.5589H35.7945V17.2742L29.7775 19.0174ZM21.1653 27.364H0V22.916H23.9936L21.1653 27.364ZM0 31.2625H19.8199V35.7105H0V31.2625ZM23.6864 44.0676H0V39.6091H21.2182L23.6864 44.0676ZM0 47.9662H35.7945V52.4142H0V47.9662Z" fill="#ABB1B4"/>
<path d="M35.4768 49.8151C32.756 49.8213 30.0756 49.1578 27.6735 47.8835C25.2713 46.6092 23.2215 44.7633 21.7059 42.5097C20.1903 40.256 19.2557 37.6642 18.9849 34.964C18.7142 32.2639 19.1156 29.5388 20.1537 27.0304C21.1918 24.522 22.8345 22.3079 24.936 20.5843C27.0375 18.8607 29.533 17.681 32.2012 17.1497C34.8694 16.6183 37.6278 16.7519 40.2318 17.5384C42.8359 18.325 45.2051 19.7402 47.1294 21.6587C49.4403 23.9627 51.015 26.8979 51.6548 30.0937C52.2946 33.2895 51.9707 36.6028 50.724 39.6152C49.4773 42.6276 47.3637 45.2041 44.6501 47.0194C41.9364 48.8348 38.7444 49.8076 35.4768 49.8151ZM35.4768 18.711C32.0874 18.7114 28.8029 19.8838 26.1831 22.0286C23.5632 24.1735 21.7701 27.1579 21.1091 30.4735C20.4482 33.7891 20.9604 37.2307 22.5584 40.2118C24.1565 43.193 26.7415 45.5293 29.873 46.8227C33.0046 48.1161 36.4889 48.2865 39.7323 47.3049C42.9757 46.3234 45.7775 44.2505 47.6604 41.4396C49.5432 38.6287 50.3906 35.2536 50.0581 31.8894C49.7256 28.5252 48.2338 25.3801 45.837 22.9899C44.4796 21.6289 42.865 20.55 41.0866 19.8155C39.3083 19.081 37.4016 18.7056 35.4768 18.711Z" fill="#696A6E"/>
<path d="M35.4768 44.8706C41.8714 44.8706 47.0552 39.7004 47.0552 33.3228C47.0552 26.9451 41.8714 21.775 35.4768 21.775C29.0823 21.775 23.8984 26.9451 23.8984 33.3228C23.8984 39.7004 29.0823 44.8706 35.4768 44.8706Z" fill="white"/>
<path d="M35.4769 45.8109C33.4181 45.8102 31.3912 45.3032 29.5758 44.3347C27.7603 43.3663 26.2123 41.9663 25.0688 40.2588C23.9253 38.5512 23.2217 36.5888 23.0201 34.5453C22.8186 32.5018 23.1254 30.4402 23.9133 28.5432C24.7013 26.6462 25.9461 24.9722 27.5376 23.6695C29.129 22.3668 31.018 21.4756 33.0372 21.0748C35.0564 20.6741 37.1436 20.776 39.1139 21.3718C41.0841 21.9675 42.8767 23.0386 44.3328 24.4902C46.0848 26.2367 47.278 28.4623 47.7615 30.8853C48.245 33.3083 47.997 35.8199 47.049 38.1023C46.1009 40.3848 44.4954 42.3354 42.4355 43.7076C40.3757 45.0798 37.954 45.8117 35.4769 45.8109ZM35.4769 22.7153C33.0276 22.7196 30.6556 23.5703 28.7644 25.1226C26.8732 26.6749 25.5798 28.8328 25.1042 31.2291C24.6287 33.6255 25.0004 36.1121 26.1561 38.2658C27.3118 40.4196 29.1801 42.1074 31.4431 43.0419C33.706 43.9765 36.2237 44.1001 38.5678 43.3917C40.9118 42.6834 42.9373 41.1867 44.2995 39.1566C45.6617 37.1265 46.2765 34.6883 46.0392 32.257C45.802 29.8257 44.7273 27.5515 42.9981 25.8214C42.0118 24.8346 40.8394 24.0521 39.5486 23.519C38.2578 22.9859 36.874 22.7128 35.4769 22.7153Z" fill="#696A6E"/>
<path d="M29.29 27.1421C30.4949 25.9377 32.0268 25.1114 33.6968 24.7649L29.29 27.1421Z" fill="white"/>
<path d="M29.2904 28.0824C29.1019 28.087 28.9164 28.0351 28.7578 27.9334C28.5992 27.8317 28.4748 27.685 28.4006 27.5121C28.3265 27.3392 28.3061 27.1481 28.3419 26.9635C28.3778 26.7789 28.4683 26.6093 28.6018 26.4765C29.932 25.1359 31.6319 24.2202 33.4853 23.8457C33.7297 23.7911 33.9859 23.8355 34.1975 23.9693C34.4091 24.103 34.5587 24.3151 34.6135 24.5589C34.6683 24.8027 34.6237 25.0582 34.4896 25.2692C34.3555 25.4802 34.1429 25.6295 33.8985 25.6841C32.407 25.9917 31.0376 26.7259 29.9578 27.7971C29.871 27.8863 29.7673 27.9575 29.6527 28.0064C29.5382 28.0554 29.415 28.0812 29.2904 28.0824Z" fill="#696A6E"/>
<path d="M36.3877 24.6276C37.1117 24.7118 37.8229 24.882 38.5063 25.1347L36.3877 24.6276Z" fill="white"/>
<path d="M38.5594 26.075C38.4475 26.0789 38.336 26.061 38.231 26.0222C37.6076 25.7865 36.9558 25.6338 36.2924 25.5679C36.1693 25.5547 36.05 25.5174 35.9413 25.4583C35.8327 25.3991 35.7367 25.3192 35.659 25.223C35.5813 25.1269 35.5233 25.0164 35.4884 24.8979C35.4535 24.7794 35.4424 24.6553 35.4556 24.5325C35.4688 24.4097 35.5061 24.2907 35.5655 24.1823C35.6248 24.0739 35.7049 23.9782 35.8013 23.9007C35.8977 23.8232 36.0085 23.7654 36.1273 23.7306C36.2461 23.6958 36.3706 23.6846 36.4937 23.6978C37.3123 23.7827 38.1167 23.9708 38.8878 24.2578C39.121 24.3478 39.3095 24.5256 39.4125 24.7528C39.5156 24.9801 39.5249 25.2387 39.4386 25.4728C39.3702 25.65 39.2495 25.8023 39.0926 25.9098C38.9357 26.0173 38.7498 26.0749 38.5594 26.075Z" fill="#696A6E"/>
<path d="M44.1929 46.6297L48.8221 42.0127L53.4291 46.6075L48.7999 51.2245L44.1929 46.6297Z" fill="white"/>
<path d="M48.7922 52.1606C48.6683 52.1608 48.5456 52.1366 48.4311 52.0895C48.3166 52.0424 48.2125 51.9732 48.1248 51.8859L43.5273 47.29C43.4396 47.2027 43.37 47.0989 43.3225 46.9847C43.2749 46.8705 43.2505 46.7481 43.2505 46.6244C43.2505 46.5008 43.2749 46.3783 43.3225 46.2641C43.37 46.1499 43.4396 46.0461 43.5273 45.9588L48.1566 41.3418C48.2442 41.2543 48.3482 41.1848 48.4627 41.1374C48.5772 41.0901 48.7 41.0657 48.824 41.0657C48.9479 41.0657 49.0707 41.0901 49.1852 41.1374C49.2997 41.1848 49.4038 41.2543 49.4913 41.3418L54.0994 45.9377C54.2703 46.1173 54.3652 46.3557 54.3642 46.6033C54.365 46.7269 54.341 46.8495 54.2937 46.9638C54.2464 47.0781 54.1768 47.1818 54.0888 47.2689L49.4595 51.8859C49.3729 51.9746 49.2691 52.0448 49.1543 52.092C49.0395 52.1392 48.9163 52.1626 48.7922 52.1606ZM45.5506 46.6244L48.824 49.8891L52.129 46.6033L48.824 43.3175L45.5506 46.6244Z" fill="#696A6E"/>
<path d="M48.1348 51.8796L54.0892 45.9409L69.8117 61.6218L63.8572 67.5605L48.1348 51.8796Z" fill="#F04461"/>
<path d="M63.856 68.505C63.6067 68.501 63.3682 68.4028 63.1886 68.2303L47.4683 52.5515C47.3805 52.4642 47.3109 52.3604 47.2634 52.2462C47.2159 52.132 47.1914 52.0096 47.1914 51.8859C47.1914 51.7622 47.2159 51.6398 47.2634 51.5256C47.3109 51.4114 47.3805 51.3076 47.4683 51.2203L53.4217 45.2721C53.6035 45.105 53.8418 45.0123 54.089 45.0123C54.3363 45.0123 54.5745 45.105 54.7564 45.2721L70.4767 60.9614C70.5671 61.0473 70.6391 61.1506 70.6882 61.265C70.7374 61.3794 70.7628 61.5026 70.7628 61.6271C70.7577 61.8755 70.6594 62.113 70.4873 62.2927L64.5233 68.2303C64.4357 68.3176 64.3316 68.3868 64.2171 68.4339C64.1026 68.4811 63.9799 68.5052 63.856 68.505ZM49.4704 51.8859L63.856 66.2335L68.4852 61.6271L54.089 47.2689L49.4704 51.8859Z" fill="#696A6E"/>
<path d="M68.4108 31.2097C67.1076 31.2097 65.8337 30.8243 64.7501 30.1022C63.6666 29.3801 62.822 28.3537 62.3233 27.1529C61.8246 25.9521 61.6941 24.6308 61.9484 23.3561C62.2026 22.0813 62.8302 20.9104 63.7517 19.9913C64.6731 19.0723 65.8472 18.4464 67.1253 18.1928C68.4035 17.9392 69.7283 18.0694 70.9323 18.5668C72.1362 19.0642 73.1653 19.9064 73.8893 20.9871C74.6133 22.0678 74.9997 23.3384 74.9997 24.6381C74.9997 26.381 74.3056 28.0525 73.0699 29.2849C71.8342 30.5173 70.1583 31.2097 68.4108 31.2097ZM68.4108 19.9577C67.4792 19.9535 66.5673 20.2254 65.7909 20.7387C65.0144 21.2521 64.4082 21.9839 64.0493 22.8413C63.6904 23.6987 63.5948 24.6431 63.7748 25.5547C63.9547 26.4663 64.402 27.3042 65.06 27.9619C65.718 28.6196 66.557 29.0677 67.4707 29.2492C68.3843 29.4307 69.3314 29.3376 70.1919 28.9815C71.0524 28.6255 71.7875 28.0226 72.304 27.2493C72.8204 26.4761 73.0951 25.5672 73.093 24.6381C73.0902 23.3995 72.5963 22.2122 71.7191 21.3354C70.842 20.4585 69.6527 19.9633 68.4108 19.9577Z" fill="#D3DADE"/>
<path d="M57.7541 36.2071C57.63 36.2085 57.507 36.1848 57.3923 36.1376C57.2776 36.0904 57.1737 36.0206 57.0867 35.9324C56.9145 35.7534 56.8183 35.5149 56.8183 35.2668C56.8183 35.0187 56.9145 34.7802 57.0867 34.6012L63.7604 27.9556C63.848 27.8681 63.952 27.7987 64.0665 27.7513C64.1811 27.7039 64.3038 27.6795 64.4278 27.6795C64.5518 27.6795 64.6745 27.7039 64.7891 27.7513C64.9036 27.7987 65.0076 27.8681 65.0952 27.9556C65.2699 28.1334 65.3677 28.3723 65.3677 28.6212C65.3677 28.8701 65.2699 29.1091 65.0952 29.2868L58.4214 35.9218C58.3362 36.013 58.2328 36.0854 58.1179 36.1345C58.003 36.1836 57.8791 36.2083 57.7541 36.2071ZM17.807 72.9002C16.0408 72.9002 14.3143 72.3778 12.8458 71.3992C11.3772 70.4205 10.2326 69.0295 9.55672 67.402C8.88082 65.7746 8.70398 63.9838 9.04855 62.2561C9.39312 60.5284 10.2436 58.9414 11.4925 57.6958C12.7414 56.4502 14.3326 55.602 16.0649 55.2583C17.7971 54.9146 19.5927 55.091 21.2244 55.7651C22.8562 56.4392 24.2509 57.5808 25.2321 59.0455C26.2134 60.5101 26.7371 62.2321 26.7371 63.9937C26.7343 66.355 25.7926 68.6187 24.1185 70.2884C22.4444 71.9581 20.1746 72.8974 17.807 72.9002ZM17.807 56.9783C16.4133 56.9783 15.0509 57.3907 13.8922 58.1632C12.7335 58.9356 11.8306 60.0336 11.2978 61.318C10.7649 62.6024 10.626 64.0156 10.8987 65.3788C11.1714 66.742 11.8433 67.9939 12.8296 68.976C13.8158 69.9582 15.072 70.6265 16.4392 70.8964C17.8064 71.1663 19.2232 71.0257 20.5102 70.4923C21.7972 69.9589 22.8967 69.0567 23.6695 67.8999C24.4423 66.7431 24.8536 65.3837 24.8515 63.9937C24.8292 62.145 24.0772 60.3795 22.7585 59.0802C21.4398 57.7808 19.6608 57.0522 17.807 57.0523V56.9783Z" fill="#D3DADE"/>
<path d="M32.839 80C32.7149 80.0014 32.5919 79.9777 32.4772 79.9305C32.3625 79.8833 32.2586 79.8135 32.1716 79.7253L22.7437 70.3222C22.6559 70.2349 22.5863 70.1311 22.5388 70.0169C22.4913 69.9027 22.4668 69.7803 22.4668 69.6566C22.4668 69.533 22.4913 69.4105 22.5388 69.2963C22.5863 69.1821 22.6559 69.0784 22.7437 68.991C22.9232 68.8193 23.1623 68.7234 23.411 68.7234C23.6598 68.7234 23.8989 68.8193 24.0784 68.991L33.5064 78.3941C33.5941 78.4814 33.6638 78.5852 33.7113 78.6994C33.7588 78.8136 33.7832 78.936 33.7832 79.0597C33.7832 79.1833 33.7588 79.3058 33.7113 79.42C33.6638 79.5342 33.5941 79.638 33.5064 79.7253C33.4201 79.8145 33.3163 79.885 33.2015 79.9323C33.0866 79.9796 32.9632 80.0026 32.839 80ZM40.9958 1.88061H24.6292C24.3792 1.88061 24.1394 1.78154 23.9626 1.6052C23.7858 1.42886 23.6864 1.18969 23.6864 0.940306C23.6864 0.690922 23.7858 0.451751 23.9626 0.275409C24.1394 0.0990677 24.3792 0 24.6292 0L40.9958 0C41.2458 0 41.4856 0.0990677 41.6624 0.275409C41.8392 0.451751 41.9386 0.690922 41.9386 0.940306C41.9386 1.18969 41.8392 1.42886 41.6624 1.6052C41.4856 1.78154 41.2458 1.88061 40.9958 1.88061ZM40.9958 5.84258H24.6292C24.3792 5.84258 24.1394 5.74351 23.9626 5.56717C23.7858 5.39083 23.6864 5.15166 23.6864 4.90227C23.6864 4.65289 23.7858 4.41372 23.9626 4.23737C24.1394 4.06103 24.3792 3.96196 24.6292 3.96196H40.9958C41.2458 3.96196 41.4856 4.06103 41.6624 4.23737C41.8392 4.41372 41.9386 4.65289 41.9386 4.90227C41.9386 5.15166 41.8392 5.39083 41.6624 5.56717C41.4856 5.74351 41.2458 5.84258 40.9958 5.84258ZM40.9958 9.80454H24.6292C24.5054 9.80454 24.3828 9.78022 24.2685 9.73297C24.1541 9.68571 24.0501 9.61645 23.9626 9.52913C23.875 9.44182 23.8056 9.33816 23.7582 9.22408C23.7108 9.10999 23.6864 8.98772 23.6864 8.86424C23.6864 8.74075 23.7108 8.61848 23.7582 8.5044C23.8056 8.39031 23.875 8.28665 23.9626 8.19934C24.0501 8.11202 24.1541 8.04276 24.2685 7.99551C24.3828 7.94825 24.5054 7.92393 24.6292 7.92393H40.9958C41.2458 7.92393 41.4856 8.023 41.6624 8.19934C41.8392 8.37568 41.9386 8.61485 41.9386 8.86424C41.9386 9.11362 41.8392 9.35279 41.6624 9.52913C41.4856 9.70547 41.2458 9.80454 40.9958 9.80454ZM40.9958 13.7348H24.6292C24.3792 13.7348 24.1394 13.6357 23.9626 13.4594C23.7858 13.2831 23.6864 13.0439 23.6864 12.7945C23.6864 12.5451 23.7858 12.3059 23.9626 12.1296C24.1394 11.9533 24.3792 11.8542 24.6292 11.8542H40.9958C41.2458 11.8542 41.4856 11.9533 41.6624 12.1296C41.8392 12.3059 41.9386 12.5451 41.9386 12.7945C41.9386 13.0439 41.8392 13.2831 41.6624 13.4594C41.4856 13.6357 41.2458 13.7348 40.9958 13.7348ZM63.75 5.84258H47.3835C47.1334 5.84258 46.8936 5.74351 46.7168 5.56717C46.54 5.39083 46.4407 5.15166 46.4407 4.90227C46.4407 4.65289 46.54 4.41372 46.7168 4.23737C46.8936 4.06103 47.1334 3.96196 47.3835 3.96196H63.75C64.0001 3.96196 64.2399 4.06103 64.4167 4.23737C64.5935 4.41372 64.6928 4.65289 64.6928 4.90227C64.6928 5.15166 64.5935 5.39083 64.4167 5.56717C64.2399 5.74351 64.0001 5.84258 63.75 5.84258ZM63.75 9.80454H47.3835C47.1334 9.80454 46.8936 9.70547 46.7168 9.52913C46.54 9.35279 46.4407 9.11362 46.4407 8.86424C46.4407 8.61485 46.54 8.37568 46.7168 8.19934C46.8936 8.023 47.1334 7.92393 47.3835 7.92393H63.75C63.8738 7.92393 63.9964 7.94825 64.1108 7.99551C64.2252 8.04276 64.3291 8.11202 64.4167 8.19934C64.5042 8.28665 64.5737 8.39031 64.621 8.5044C64.6684 8.61848 64.6928 8.74075 64.6928 8.86424C64.6928 8.98772 64.6684 9.10999 64.621 9.22408C64.5737 9.33816 64.5042 9.44182 64.4167 9.52913C64.3291 9.61645 64.2252 9.68571 64.1108 9.73297C63.9964 9.78022 63.8738 9.80454 63.75 9.80454ZM63.75 13.7348H47.3835C47.1334 13.7348 46.8936 13.6357 46.7168 13.4594C46.54 13.2831 46.4407 13.0439 46.4407 12.7945C46.4407 12.5451 46.54 12.3059 46.7168 12.1296C46.8936 11.9533 47.1334 11.8542 47.3835 11.8542H63.75C64.0001 11.8542 64.2399 11.9533 64.4167 12.1296C64.5935 12.3059 64.6928 12.5451 64.6928 12.7945C64.6928 13.0439 64.5935 13.2831 64.4167 13.4594C64.2399 13.6357 64.0001 13.7348 63.75 13.7348ZM63.75 17.7285H47.3835C47.2597 17.7285 47.1371 17.7042 47.0227 17.6569C46.9083 17.6096 46.8044 17.5404 46.7168 17.4531C46.6293 17.3657 46.5598 17.2621 46.5124 17.148C46.4651 17.0339 46.4407 16.9116 46.4407 16.7882C46.4407 16.6647 46.4651 16.5424 46.5124 16.4283C46.5598 16.3142 46.6293 16.2106 46.7168 16.1233C46.8044 16.036 46.9083 15.9667 47.0227 15.9194C47.1371 15.8722 47.2597 15.8479 47.3835 15.8479H63.75C64.0001 15.8479 64.2399 15.9469 64.4167 16.1233C64.5935 16.2996 64.6928 16.5388 64.6928 16.7882C64.6928 17.0375 64.5935 17.2767 64.4167 17.4531C64.2399 17.6294 64.0001 17.7285 63.75 17.7285ZM51.5572 64.9657H33.0297C32.7796 64.9657 32.5398 64.8666 32.363 64.6902C32.1862 64.5139 32.0869 64.2747 32.0869 64.0253C32.0869 63.776 32.1862 63.5368 32.363 63.3605C32.5398 63.1841 32.7796 63.085 33.0297 63.085H51.5572C51.8073 63.085 52.0471 63.1841 52.2239 63.3605C52.4007 63.5368 52.5 63.776 52.5 64.0253C52.5 64.2747 52.4007 64.5139 52.2239 64.6902C52.0471 64.8666 51.8073 64.9657 51.5572 64.9657ZM51.5572 68.9276H33.0297C32.7796 68.9276 32.5398 68.8286 32.363 68.6522C32.1862 68.4759 32.0869 68.2367 32.0869 67.9873C32.0869 67.7379 32.1862 67.4988 32.363 67.3224C32.5398 67.1461 32.7796 67.047 33.0297 67.047H51.5572C51.8073 67.047 52.0471 67.1461 52.2239 67.3224C52.4007 67.4988 52.5 67.7379 52.5 67.9873C52.5 68.2367 52.4007 68.4759 52.2239 68.6522C52.0471 68.8286 51.8073 68.9276 51.5572 68.9276Z" fill="#D3DADE"/>
</g>
<defs>
<clipPath id="clip0_960_829">
<rect width="75" height="80" fill="white"/>
</clipPath>
</defs>
</svg>
