<svg width="73" height="80" viewBox="0 0 73 80" fill="none" xmlns="http://www.w3.org/2000/svg">
<g clip-path="url(#clip0_960_847)">
<path d="M19.82 4.77905H24.4487V75.6012H19.82V4.77905ZM11.2557 41.1819H15.8845V75.6012H11.2557V41.1819ZM2.70166 65.1593H7.33043V75.6012H2.70166V65.1593Z" fill="#ABB1B4"/>
<path d="M70.1657 38.4481C69.925 38.4481 69.6942 38.3517 69.5241 38.1802C69.3539 38.0086 69.2583 37.776 69.2583 37.5334V33.6382C69.2583 33.3956 69.3539 33.163 69.5241 32.9914C69.6942 32.8199 69.925 32.7235 70.1657 32.7235C70.4064 32.7235 70.6372 32.8199 70.8073 32.9914C70.9775 33.163 71.0731 33.3956 71.0731 33.6382V37.5334C71.0731 37.776 70.9775 38.0086 70.8073 38.1802C70.6372 38.3517 70.4064 38.4481 70.1657 38.4481Z" fill="#D3DADE"/>
<path d="M72.0925 36.4954H68.2385C67.9979 36.4954 67.7671 36.399 67.5969 36.2275C67.4267 36.0559 67.3311 35.8233 67.3311 35.5807C67.3311 35.3381 67.4267 35.1054 67.5969 34.9339C67.7671 34.7623 67.9979 34.666 68.2385 34.666H72.0925C72.3331 34.666 72.5639 34.7623 72.7341 34.9339C72.9043 35.1054 72.9999 35.3381 72.9999 35.5807C72.9999 35.8233 72.9043 36.0559 72.7341 36.2275C72.5639 36.399 72.3331 36.4954 72.0925 36.4954ZM4.72039 28.4481C4.47973 28.4481 4.24893 28.3517 4.07876 28.1802C3.90859 28.0086 3.81299 27.776 3.81299 27.5334V19.8561C3.81299 19.6135 3.90859 19.3809 4.07876 19.2093C4.24893 19.0378 4.47973 18.9414 4.72039 18.9414C4.96105 18.9414 5.19185 19.0378 5.36202 19.2093C5.53219 19.3809 5.62779 19.6135 5.62779 19.8561V27.5334C5.62779 27.776 5.53219 28.0086 5.36202 28.1802C5.19185 28.3517 4.96105 28.4481 4.72039 28.4481Z" fill="#D3DADE"/>
<path d="M8.52346 24.6043H0.907402C0.666744 24.6043 0.435943 24.5079 0.265772 24.3364C0.095601 24.1648 0 23.9322 0 23.6896C0 23.447 0.095601 23.2144 0.265772 23.0428C0.435943 22.8713 0.666744 22.7749 0.907402 22.7749H8.52346C8.76412 22.7749 8.99492 22.8713 9.16509 23.0428C9.33527 23.2144 9.43087 23.447 9.43087 23.6896C9.43087 23.9322 9.33527 24.1648 9.16509 24.3364C8.99492 24.5079 8.76412 24.6043 8.52346 24.6043ZM12.6119 37.8623C12.4927 37.8623 12.3747 37.8386 12.2646 37.7926C12.1545 37.7467 12.0545 37.6793 11.9702 37.5944C11.886 37.5094 11.8191 37.4086 11.7735 37.2976C11.7279 37.1866 11.7045 37.0677 11.7045 36.9476V30.3289C11.7045 30.0863 11.8001 29.8536 11.9702 29.6821C12.1404 29.5105 12.3712 29.4142 12.6119 29.4142C12.8525 29.4142 13.0833 29.5105 13.2535 29.6821C13.4237 29.8536 13.5193 30.0863 13.5193 30.3289V36.999C13.5062 37.2325 13.4049 37.4522 13.2361 37.6128C13.0674 37.7733 12.844 37.8626 12.6119 37.8623Z" fill="#D3DADE"/>
<path d="M15.8947 34.5529H9.32879C9.08813 34.5529 8.85733 34.4565 8.68716 34.285C8.51699 34.1135 8.42139 33.8808 8.42139 33.6382C8.42139 33.3956 8.51699 33.163 8.68716 32.9914C8.85733 32.8199 9.08813 32.7235 9.32879 32.7235H15.8947C16.1354 32.7235 16.3662 32.8199 16.5363 32.9914C16.7065 33.163 16.8021 33.3956 16.8021 33.6382C16.8021 33.8808 16.7065 34.1135 16.5363 34.285C16.3662 34.4565 16.1354 34.5529 15.8947 34.5529Z" fill="#D3DADE"/>
<path d="M56.2385 64.8921L59.5011 66.2487C60.5319 63.7254 61.0618 61.0228 61.061 58.2939H57.5435C57.5449 56.0283 57.0977 53.7851 56.2283 51.6958L59.5011 50.3597C58.4969 47.9304 57.0438 45.7157 55.2189 43.8335L55.0558 43.5869L52.5477 46.1151C50.9635 44.5143 49.0824 43.2432 47.0115 42.3741L48.3369 39.0545C45.8323 38.0072 43.147 37.4693 40.4354 37.4717V41.11C38.1917 41.1042 35.9695 41.5515 33.9001 42.4255L32.5441 39.0545C31.2906 39.5773 30.0918 40.2246 28.9654 40.9867C27.8467 41.7367 26.8049 42.5974 25.8558 43.556L28.3537 46.074C26.7676 47.6766 25.507 49.5757 24.6425 51.665L21.4106 50.3597C20.3749 52.8816 19.8447 55.5851 19.8506 58.3145H23.3681C23.3659 60.5769 23.8131 62.8169 24.6833 64.9024L21.4106 66.2487C22.4454 68.7589 23.9552 71.0419 25.8558 72.9702L28.3639 70.4522L28.8227 70.9044C30.3164 72.295 32.0422 73.4084 33.9205 74.1932L32.5645 77.482C35.0545 78.5503 37.7293 79.1126 40.4354 79.1367V75.5293C42.682 75.5301 44.9065 75.083 46.9809 74.2138L48.3369 77.5026C50.8515 76.4539 53.1351 74.9134 55.0558 72.9702L52.5579 70.4522C54.1305 68.8567 55.3805 66.9683 56.2385 64.8921Z" fill="white"/>
<path d="M40.4354 80C37.6077 80.0043 34.8075 79.4419 32.1974 78.3453C31.9761 78.2521 31.8004 78.0744 31.7087 77.851C31.617 77.6276 31.6167 77.3767 31.708 77.1531L32.7276 74.6865C31.1457 73.925 29.6825 72.9348 28.3843 71.7472L26.5083 73.6382C26.424 73.7234 26.3239 73.7909 26.2137 73.837C26.1035 73.8831 25.9853 73.9068 25.866 73.9068C25.7467 73.9068 25.6285 73.8831 25.5183 73.837C25.4081 73.7909 25.308 73.7234 25.2237 73.6382C23.2212 71.6254 21.6341 69.2327 20.5541 66.5982C20.4624 66.3744 20.4624 66.1231 20.5541 65.8993C20.5987 65.7882 20.665 65.6873 20.7491 65.6025C20.8332 65.5178 20.9333 65.4509 21.0435 65.406L23.4904 64.3782C22.9073 62.7236 22.5639 60.9929 22.4709 59.2395H19.82C19.5794 59.2395 19.3486 59.1431 19.1784 58.9716C19.0082 58.8 18.9126 58.5674 18.9126 58.3248C18.9073 55.4753 19.4617 52.6529 20.5439 50.0206C20.5887 49.9092 20.6549 49.8078 20.7386 49.7222C20.8223 49.6366 20.9219 49.5685 21.0317 49.5217C21.1416 49.4749 21.2595 49.4504 21.3787 49.4496C21.4979 49.4488 21.6162 49.4717 21.7266 49.517L24.1735 50.5447C24.9265 48.9455 25.909 47.4668 27.0895 46.1562L25.2135 44.1932C25.1293 44.1091 25.0625 44.0091 25.0169 43.8988C24.9713 43.7886 24.9479 43.6703 24.9479 43.5509C24.9479 43.4314 24.9713 43.3132 25.0169 43.2029C25.0625 43.0927 25.1293 42.9926 25.2135 42.9085C26.2049 41.9029 27.2946 41.0007 28.4658 40.2158C29.6393 39.4081 30.8893 38.7196 32.1974 38.1603C32.3061 38.1097 32.4243 38.0834 32.5441 38.0834C32.6638 38.0834 32.7821 38.1097 32.8907 38.1603C33.0009 38.2053 33.101 38.2721 33.1851 38.3569C33.2692 38.4416 33.3355 38.5426 33.3801 38.6536L34.3997 41.11C36.0392 40.5153 37.7571 40.169 39.4974 40.0822V37.5026C39.4974 37.26 39.593 37.0273 39.7632 36.8558C39.9334 36.6842 40.1642 36.5879 40.4048 36.5879C43.2359 36.5824 46.0397 37.1449 48.653 38.2425C48.7635 38.2876 48.8639 38.3543 48.9485 38.4389C49.0331 38.5235 49.1001 38.6242 49.1457 38.7352C49.1912 38.8462 49.2144 38.9652 49.2138 39.0853C49.2133 39.2054 49.189 39.3242 49.1424 39.4347L48.1228 41.9013C49.7093 42.6603 51.1762 43.6508 52.4763 44.8407L54.3523 42.9496C54.4357 42.8648 54.535 42.7975 54.6443 42.7515C54.7537 42.7056 54.871 42.6819 54.9895 42.6819C55.108 42.6819 55.2253 42.7056 55.3347 42.7515C55.4441 42.7975 55.5433 42.8648 55.6267 42.9496L55.7899 43.1141L55.8612 43.2066C57.7569 45.1664 59.2655 47.4719 60.3065 50C60.3983 50.2238 60.3983 50.4751 60.3065 50.6989C60.2135 50.9214 60.0379 51.0984 59.8171 51.1922L57.3702 52.2199C57.9592 53.8729 58.3028 55.6045 58.3897 57.3587H61.0304C61.1495 57.3587 61.2675 57.3823 61.3776 57.4283C61.4877 57.4743 61.5877 57.5417 61.672 57.6266C61.7563 57.7115 61.8231 57.8124 61.8687 57.9233C61.9143 58.0343 61.9378 58.1533 61.9378 58.2734C61.9408 61.1226 61.3864 63.9445 60.3065 66.5776C60.2608 66.6893 60.1935 66.7908 60.1087 66.8762C60.0238 66.9615 59.923 67.0291 59.8121 67.075C59.7012 67.1208 59.5823 67.1441 59.4625 67.1434C59.3426 67.1427 59.224 67.1181 59.1136 67.0709L56.6769 66.0432C55.9239 67.6424 54.9414 69.1211 53.761 70.4317L55.6369 72.3124C55.8027 72.4866 55.8952 72.7186 55.8952 72.9599C55.8952 73.2013 55.8027 73.4333 55.6369 73.6074C53.6402 75.626 51.2665 77.2258 48.653 78.3145C48.4298 78.4069 48.1794 78.407 47.9561 78.3146C47.7329 78.2223 47.5546 78.045 47.4601 77.8212L46.4406 75.3649C44.7997 75.9548 43.0825 76.301 41.3428 76.3926V79.1367C41.3298 79.3703 41.2284 79.5899 41.0597 79.7505C40.8909 79.9111 40.6675 80.0004 40.4354 80ZM33.7369 76.9887C35.6008 77.6522 37.5529 78.0298 39.528 78.1089V75.5293C39.528 75.2867 39.6236 75.054 39.7938 74.8825C39.9639 74.711 40.1947 74.6146 40.4354 74.6146C42.5628 74.6162 44.6696 74.1936 46.6343 73.371C46.8563 73.2785 47.1056 73.2785 47.3276 73.371C47.4378 73.416 47.5379 73.4828 47.622 73.5676C47.706 73.6523 47.7724 73.7532 47.817 73.8643L48.8365 76.2898C50.6223 75.4345 52.2717 74.3156 53.7304 72.9702L51.885 71.1202C51.8005 71.0353 51.7335 70.9344 51.6878 70.8233C51.6421 70.7122 51.6185 70.593 51.6185 70.4728C51.6185 70.3525 51.6421 70.2334 51.6878 70.1223C51.7335 70.0112 51.8005 69.9102 51.885 69.8253C53.3884 68.311 54.5803 66.5122 55.3922 64.5324C55.4888 64.3103 55.6672 64.1347 55.8898 64.0427C56.1123 63.9507 56.3616 63.9494 56.5851 64.0391L58.9913 65.0668C59.67 63.1845 60.0619 61.2093 60.1536 59.2086H57.5435C57.3028 59.2086 57.072 59.1123 56.9019 58.9407C56.7317 58.7692 56.6361 58.5365 56.6361 58.2939C56.6383 56.1483 56.2154 54.0239 55.3922 52.0452C55.3005 51.8214 55.3005 51.5701 55.3922 51.3463C55.4852 51.1238 55.6609 50.9468 55.8816 50.853L58.2878 49.8253C57.4601 48.0341 56.3707 46.3781 55.0558 44.9126L53.2104 46.7626C53.127 46.8489 53.0271 46.9171 52.9166 46.9631C52.8062 47.009 52.6876 47.0317 52.5681 47.0298C52.4489 47.03 52.3308 47.0065 52.2205 46.9606C52.1103 46.9148 52.0102 46.8475 51.9258 46.7626C50.4304 45.2409 48.6488 44.0355 46.6853 43.2169C46.4639 43.1237 46.2882 42.946 46.1965 42.7226C46.1048 42.4992 46.1046 42.2482 46.1959 42.0247L47.2154 39.5992C45.3505 38.9207 43.3948 38.5292 41.4142 38.4378V41.11C41.4142 41.3526 41.3186 41.5852 41.1484 41.7568C40.9782 41.9283 40.7474 42.0247 40.5068 42.0247C38.3822 42.0189 36.278 42.4417 34.3181 43.2682C34.0961 43.3607 33.8468 43.3607 33.6248 43.2682C33.4014 43.1749 33.2224 42.9981 33.1252 42.7749L32.1057 40.3494C30.3152 41.2032 28.6593 42.3183 27.1914 43.6588L29.0368 45.5087C29.1213 45.5937 29.1883 45.6946 29.234 45.8057C29.2797 45.9168 29.3033 46.0359 29.3033 46.1562C29.3033 46.2765 29.2797 46.3956 29.234 46.5067C29.1883 46.6178 29.1213 46.7187 29.0368 46.8037C27.5303 48.3043 26.3256 50.084 25.4888 52.0452C25.4441 52.1566 25.3779 52.2578 25.294 52.3431C25.21 52.4284 25.1101 52.4959 25 52.5419C24.8899 52.5878 24.7719 52.6111 24.6527 52.6106C24.5336 52.61 24.4157 52.5855 24.3061 52.5385L21.8999 51.5108C21.2243 53.386 20.8392 55.355 20.758 57.3484H23.3477C23.5884 57.3484 23.8192 57.4448 23.9893 57.6163C24.1595 57.7879 24.2551 58.0205 24.2551 58.2631C24.2456 60.4151 24.6651 62.547 25.4888 64.5324C25.5805 64.7561 25.5805 65.0075 25.4888 65.2312C25.3961 65.4564 25.2208 65.6368 24.9994 65.7348L22.5932 66.7626C23.4266 68.5727 24.5304 70.2434 25.866 71.7163L27.7216 69.8561C27.805 69.7713 27.9042 69.7039 28.0136 69.658C28.123 69.612 28.2403 69.5884 28.3588 69.5884C28.4773 69.5884 28.5946 69.612 28.704 69.658C28.8133 69.7039 28.9126 69.7713 28.996 69.8561L29.4446 70.2878C30.8536 71.5913 32.4791 72.635 34.2467 73.371C34.468 73.4642 34.6438 73.6419 34.7355 73.8653C34.8272 74.0887 34.8274 74.3396 34.7361 74.5632L33.7369 76.9887Z" fill="#696A6E"/>
<path d="M42.8211 56.1049C42.5259 55.8039 42.1747 55.5645 41.7877 55.4003C41.4007 55.2361 40.9854 55.1504 40.5655 55.148C40.1456 55.1456 39.7294 55.2266 39.3406 55.3864C38.9517 55.5462 38.5979 55.7816 38.2994 56.0792C38.0008 56.3768 37.7633 56.7307 37.6004 57.1208C37.4376 57.511 37.3525 57.9296 37.3501 58.3529C37.3478 58.7761 37.4281 59.1957 37.5866 59.5877C37.7451 59.9796 37.9787 60.3363 38.2739 60.6372C38.8593 61.1903 39.633 61.4957 40.4353 61.4903C41.0565 61.4959 41.6659 61.3187 42.1886 60.9803C42.7113 60.6419 43.1247 60.157 43.378 59.5852C43.6313 59.0134 43.7135 58.3795 43.6146 57.7613C43.5157 57.1431 43.2399 56.5674 42.8211 56.1049Z" fill="#F04461"/>
<path d="M40.4356 62.4255C39.629 62.4255 38.8406 62.1844 38.1699 61.7327C37.4992 61.2809 36.9765 60.6389 36.6679 59.8877C36.3592 59.1365 36.2784 58.3099 36.4358 57.5125C36.5931 56.715 36.9816 55.9825 37.5519 55.4076C38.1223 54.8326 38.8489 54.4411 39.64 54.2825C40.4311 54.1239 41.2511 54.2053 41.9963 54.5164C42.7415 54.8276 43.3784 55.3545 43.8265 56.0305C44.2747 56.7066 44.5138 57.5014 44.5138 58.3145C44.5138 59.4048 44.0842 60.4504 43.3194 61.2214C42.5546 61.9924 41.5172 62.4255 40.4356 62.4255ZM40.4356 55.9815C39.9086 55.9816 39.3977 56.1645 38.9888 56.4997C38.5799 56.8348 38.2979 57.3016 38.1903 57.8217C38.0826 58.3417 38.1559 58.8833 38.3978 59.3553C38.6397 59.8273 39.0354 60.2009 39.5184 60.4134C40.0015 60.6258 40.5423 60.6642 41.0501 60.5219C41.5579 60.3797 42.0016 60.0656 42.3066 59.6323C42.6116 59.1991 42.7594 58.6733 42.725 58.1431C42.6907 57.613 42.4763 57.111 42.1179 56.7215C41.9016 56.49 41.6411 56.305 41.3519 56.1779C41.0628 56.0507 40.7511 55.9839 40.4356 55.9815Z" fill="#696A6E"/>
<path d="M54.7297 19.7636L56.259 20.4008C56.7434 19.2176 56.9929 17.9501 56.9931 16.6701H55.3414C55.3406 15.6108 55.1292 14.5624 54.7195 13.5869L56.259 12.9394C55.7745 11.7932 55.0831 10.7478 54.2199 9.85613L54.1282 9.75336L53.0168 10.9558C52.258 10.2156 51.3603 9.63561 50.3762 9.24976L50.9777 7.64647C49.8004 7.15811 48.5397 6.90673 47.2666 6.90649V8.57145C46.2171 8.57674 45.1786 8.78611 44.2079 9.1881L43.5758 7.64647C42.9861 7.89392 42.4225 8.20035 41.8935 8.56117C41.3785 8.91222 40.9003 9.31511 40.4661 9.76364L41.6386 10.9455C40.8903 11.6974 40.2976 12.5918 39.8952 13.5766L38.3659 12.9291C37.8733 14.1138 37.6202 15.3856 37.6216 16.6701H39.2835C39.2818 17.7287 39.4898 18.7769 39.8952 19.7534L38.3659 20.3906C38.8497 21.5763 39.5638 22.6525 40.4661 23.556L41.6386 22.3741L41.8527 22.5899C42.551 23.2424 43.3588 23.7645 44.2385 24.1316L43.6064 25.6938C44.778 26.1903 46.0364 26.4454 47.3073 26.444V24.7585C48.3576 24.7613 49.3976 24.5516 50.366 24.1418L50.9777 25.6938C52.1526 25.2034 53.2197 24.4839 54.118 23.5766L53.0168 22.3844C53.7506 21.6308 54.3323 20.7407 54.7297 19.7636Z" fill="white"/>
<path d="M47.3072 27.3484C45.9079 27.3522 44.5218 27.0762 43.229 26.5365C43.0197 26.4284 42.8602 26.2426 42.7841 26.0183C42.708 25.794 42.7213 25.5487 42.8212 25.334L43.1169 24.594C42.6051 24.3228 42.1203 24.0028 41.6691 23.6382L41.1083 24.2035C41.024 24.2886 40.9239 24.3562 40.8137 24.4023C40.7035 24.4484 40.5853 24.4721 40.466 24.4721C40.3467 24.4721 40.2285 24.4484 40.1183 24.4023C40.0081 24.3562 39.908 24.2886 39.8237 24.2035C38.8377 23.2125 38.0548 22.0357 37.5195 20.74C37.4699 20.6277 37.4436 20.5064 37.442 20.3836C37.4405 20.2607 37.4638 20.1388 37.5106 20.0253C37.5573 19.9118 37.6265 19.8091 37.7139 19.7235C37.8014 19.6378 37.9052 19.5711 38.0191 19.5272L38.7532 19.2189C38.5906 18.6755 38.478 18.1182 38.4167 17.554H37.6317C37.391 17.554 37.1602 17.4576 36.99 17.286C36.8199 17.1145 36.7243 16.8819 36.7243 16.6393C36.7173 15.2294 36.9875 13.8322 37.5195 12.5283C37.5709 12.4181 37.6434 12.3193 37.7327 12.2375C37.8221 12.1556 37.9266 12.0924 38.0402 12.0513C38.1539 12.0103 38.2745 11.9922 38.3951 11.9982C38.5157 12.0042 38.6339 12.0342 38.743 12.0863L39.477 12.3947C39.7407 11.894 40.0551 11.4221 40.415 10.9866L39.8543 10.4111C39.7687 10.3271 39.701 10.2263 39.6554 10.115C39.6098 10.0036 39.5873 9.88405 39.5892 9.76362C39.589 9.64343 39.6123 9.52438 39.6578 9.41328C39.7033 9.30218 39.7701 9.20121 39.8543 9.11613C40.3418 8.62773 40.8744 8.18724 41.4448 7.80062C42.0249 7.39772 42.643 7.05347 43.2902 6.77287C43.5122 6.68036 43.7615 6.68036 43.9835 6.77287C44.0937 6.81784 44.1938 6.88468 44.2779 6.96943C44.3619 7.05417 44.4282 7.15509 44.4729 7.26619L44.7787 8.00617C45.318 7.84535 45.8709 7.73525 46.4304 7.67729V6.90647C46.4304 6.66388 46.526 6.43122 46.6962 6.25968C46.8663 6.08815 47.0971 5.99178 47.3378 5.99178C48.737 5.98933 50.1228 6.26524 51.416 6.8037C51.6373 6.89688 51.813 7.0746 51.9048 7.298C51.9965 7.5214 51.9967 7.77231 51.9054 7.99589L51.5995 8.74614C52.0948 9.0144 52.5626 9.3311 52.9963 9.69167L53.5673 9.11613C53.74 8.94905 53.9702 8.85576 54.2096 8.85576C54.449 8.85576 54.6791 8.94905 54.8519 9.11613L54.9437 9.23946C55.8601 10.2087 56.5896 11.3414 57.0949 12.5796C57.1866 12.8047 57.1867 13.0571 57.0951 13.2821C57.0035 13.5072 56.8276 13.6868 56.6055 13.7821L55.8715 14.0802C56.0349 14.6263 56.1442 15.1875 56.1977 15.7554H56.993C57.2336 15.7554 57.4644 15.8518 57.6346 16.0233C57.8048 16.1948 57.9004 16.4275 57.9004 16.6701C57.9041 18.0806 57.6304 19.4779 57.0949 20.7811C57.0501 20.8925 56.984 20.9939 56.9003 21.0795C56.8166 21.1651 56.717 21.2332 56.6071 21.28C56.4973 21.3267 56.3794 21.3512 56.2601 21.352C56.1409 21.3528 56.0227 21.33 55.9122 21.2847L55.1782 20.9764C54.9025 21.4721 54.5852 21.9431 54.23 22.3844L54.8009 22.9496C54.9667 23.1238 55.0592 23.3558 55.0592 23.5971C55.0592 23.8385 54.9667 24.0705 54.8009 24.2446C53.8179 25.2385 52.6504 26.0278 51.365 26.5673C51.143 26.6598 50.8937 26.6598 50.6717 26.5673C50.4477 26.4697 50.269 26.2896 50.1722 26.0637L49.8765 25.3237C49.334 25.4879 48.7777 25.6014 48.2146 25.6629V26.4645C48.2067 26.7018 48.1076 26.9266 47.9383 27.0915C47.769 27.2564 47.5427 27.3485 47.3072 27.3484ZM44.8603 25.149C45.3791 25.3064 45.9117 25.4131 46.4508 25.4676V24.7585C46.4508 24.5159 46.5464 24.2832 46.7166 24.1117C46.8867 23.9401 47.1175 23.8438 47.3582 23.8438C48.2922 23.8435 49.2171 23.6585 50.0804 23.2991C50.3036 23.2067 50.554 23.2066 50.7773 23.2989C51.0005 23.3913 51.1788 23.5686 51.2733 23.7924L51.5384 24.4502C52.0162 24.1861 52.47 23.88 52.8944 23.5355L52.3948 23.0319C52.3092 22.9478 52.2415 22.8471 52.1959 22.7357C52.1503 22.6244 52.1278 22.5048 52.1297 22.3844C52.1295 22.2642 52.1528 22.1451 52.1983 22.034C52.2438 21.9229 52.3106 21.822 52.3948 21.7369C53.0557 21.0732 53.579 20.2837 53.9343 19.4142C54.0283 19.2073 54.1947 19.0426 54.4016 18.9516C54.6085 18.8606 54.8414 18.8496 55.0558 18.9209L55.6981 19.1881C55.8799 18.6686 56.0064 18.1312 56.0754 17.5848H55.3821C55.1414 17.5848 54.9106 17.4884 54.7404 17.3169C54.5703 17.1453 54.4747 16.9127 54.4747 16.6701C54.4764 15.7274 54.2891 14.794 53.9241 13.926C53.8323 13.7022 53.8323 13.4509 53.9241 13.2271C54.0167 13.0019 54.1921 12.8215 54.4135 12.7235L55.066 12.4563C54.8101 11.9742 54.506 11.5196 54.1586 11.0997L53.659 11.6033C53.488 11.7738 53.2573 11.8698 53.0167 11.8705C52.777 11.8656 52.5478 11.7702 52.3744 11.6033C51.7192 10.9306 50.9353 10.3991 50.0702 10.0411C49.8489 9.94793 49.6732 9.77021 49.5815 9.54681C49.4898 9.32341 49.4895 9.07249 49.5808 8.84892L49.8153 8.22199C49.293 8.06462 48.757 7.95794 48.2146 7.90339V8.60226C48.2146 8.84485 48.119 9.07751 47.9488 9.24905C47.7787 9.42059 47.5479 9.51696 47.3072 9.51696C46.372 9.51525 45.4461 9.70402 44.585 10.0719C44.363 10.1644 44.1137 10.1644 43.8917 10.0719C43.671 9.9782 43.4953 9.80115 43.4023 9.57862L43.127 8.92086L42.4236 9.35252C42.2005 9.50102 41.986 9.6623 41.7812 9.83556L42.2808 10.3289C42.4464 10.5037 42.541 10.7347 42.5459 10.9764C42.5452 11.2189 42.45 11.4514 42.2808 11.6238C41.6372 12.2855 41.1281 13.0675 40.7821 13.926C40.6896 14.1491 40.5133 14.3262 40.2917 14.4187C40.0701 14.5111 39.8212 14.5113 39.5994 14.4193L38.9469 14.1418C38.7956 14.6695 38.6899 15.2094 38.6308 15.7554H39.3343C39.575 15.7554 39.8058 15.8518 39.9759 16.0233C40.1461 16.1948 40.2417 16.4275 40.2417 16.6701C40.242 17.6116 40.4256 18.5439 40.7821 19.4142C40.8738 19.638 40.8738 19.8893 40.7821 20.1131C40.7375 20.2241 40.6712 20.3251 40.5871 20.4098C40.503 20.4946 40.4029 20.5614 40.2927 20.6064L39.6402 20.8839C39.8998 21.3638 40.2036 21.818 40.5476 22.2405L41.0472 21.7369C41.1314 21.6517 41.2316 21.5842 41.3418 21.5381C41.452 21.492 41.5702 21.4683 41.6895 21.4683C41.8088 21.4683 41.927 21.492 42.0372 21.5381C42.1474 21.5842 42.2475 21.6517 42.3318 21.7369L42.5255 21.9322C43.1441 22.509 43.8584 22.9717 44.636 23.2991C44.8573 23.3923 45.033 23.57 45.1247 23.7934C45.2164 24.0168 45.2167 24.2677 45.1254 24.4913L44.8603 25.149Z" fill="#696A6E"/>
<path d="M48.4085 15.6424C48.2038 15.4189 47.9369 15.2629 47.6428 15.1948C47.3487 15.1267 47.0411 15.1497 46.7602 15.2608C46.4792 15.3718 46.2381 15.5658 46.0683 15.8172C45.8986 16.0687 45.808 16.3659 45.8086 16.6701C45.8088 16.8783 45.8515 17.0843 45.9339 17.2752C46.0164 17.4662 46.1368 17.638 46.2878 17.7801C46.5675 18.0351 46.9303 18.1777 47.3073 18.1809C47.5992 18.1814 47.8849 18.096 48.1293 17.9351C48.3737 17.7743 48.5662 17.545 48.6832 17.2754C48.8001 17.0058 48.8364 16.7076 48.7876 16.4175C48.7388 16.1275 48.607 15.858 48.4085 15.6424Z" fill="#F04461"/>
<path d="M47.3075 19.0956C46.7088 19.1103 46.1264 18.8975 45.6762 18.4995C45.322 18.1682 45.075 17.7372 44.9672 17.2625C44.8595 16.7878 44.896 16.2913 45.072 15.8378C45.248 15.3843 45.5553 14.9947 45.9541 14.7197C46.3528 14.4447 46.8244 14.297 47.3075 14.296C47.9448 14.2987 48.5552 14.5551 49.0059 15.0094C49.4566 15.4637 49.7109 16.079 49.7136 16.7215C49.7003 17.3558 49.4409 17.9596 48.9911 18.4034C48.5413 18.8472 47.9369 19.0957 47.3075 19.0956ZM47.3075 16.074C47.1506 16.074 47.0002 16.1368 46.8893 16.2486C46.7784 16.3604 46.7161 16.512 46.7161 16.6701C46.7178 16.753 46.7358 16.8348 46.7691 16.9106C46.8023 16.9865 46.8502 17.0549 46.9098 17.112C46.9967 17.1904 47.1041 17.2422 47.2192 17.2612C47.3343 17.2801 47.4524 17.2656 47.5596 17.2191C47.6667 17.1727 47.7585 17.0963 47.824 16.999C47.8895 16.9017 47.9261 16.7876 47.9294 16.6701C47.9316 16.5964 47.9192 16.523 47.8929 16.4541C47.8667 16.3853 47.8271 16.3225 47.7765 16.2693C47.718 16.2031 47.6455 16.1511 47.5642 16.1173C47.483 16.0835 47.3952 16.0687 47.3075 16.074ZM7.9833 53.2374C7.75784 53.2353 7.54067 53.1514 7.37157 53.001C7.19569 52.8381 7.09062 52.6118 7.07917 52.3713C7.06772 52.1308 7.1508 51.8955 7.3104 51.7163L29.4245 26.9167C29.5407 26.7857 29.6922 26.6916 29.8606 26.6459C30.029 26.6003 30.207 26.6051 30.3727 26.6598L58.7163 35.7451L64.7214 5.32372C64.7688 5.08522 64.9081 4.87543 65.1089 4.74052C65.3097 4.6056 65.5554 4.5566 65.792 4.6043C66.0286 4.652 66.2367 4.79249 66.3705 4.99487C66.5044 5.19725 66.553 5.44493 66.5057 5.68344L60.2966 37.112C60.272 37.2379 60.221 37.3571 60.1472 37.4617C60.0734 37.5662 59.9783 37.6537 59.8684 37.7184C59.759 37.7844 59.6369 37.826 59.5102 37.8402C59.3835 37.8544 59.2553 37.8409 59.1343 37.8006L30.3829 28.5509L8.65621 52.9291C8.57221 53.0257 8.46875 53.1032 8.35272 53.1563C8.23669 53.2095 8.11076 53.2371 7.9833 53.2374Z" fill="#696A6E"/>
<path d="M12.5303 52.3227C12.5323 53.2322 12.2665 54.1218 11.7665 54.8789C11.2665 55.636 10.5548 56.2264 9.72168 56.5754C8.88851 56.9243 7.97132 57.0162 7.08632 56.8393C6.20133 56.6623 5.38834 56.2246 4.75036 55.5815C4.11238 54.9384 3.67813 54.1188 3.5026 53.2267C3.32708 52.3346 3.41819 51.4101 3.76439 50.5702C4.11059 49.7303 4.69631 49.0129 5.44733 48.5089C6.19835 48.0049 7.08088 47.7369 7.98312 47.739C8.58026 47.739 9.17156 47.8575 9.72326 48.0879C10.2749 48.3182 10.7762 48.6559 11.1985 49.0815C11.6207 49.5072 11.9557 50.0125 12.1842 50.5686C12.4127 51.1247 12.5303 51.7208 12.5303 52.3227Z" fill="#F04461"/>
<path d="M7.98293 57.8212C6.90411 57.8212 5.84952 57.4987 4.95251 56.8945C4.05551 56.2904 3.35638 55.4316 2.94353 54.4269C2.53068 53.4222 2.42266 52.3166 2.63313 51.25C2.8436 50.1834 3.3631 49.2037 4.12594 48.4347C4.88878 47.6658 5.8607 47.1421 6.91879 46.9299C7.97688 46.7178 9.07362 46.8267 10.0703 47.2428C11.067 47.659 11.9189 48.3637 12.5183 49.268C13.1176 50.1722 13.4375 51.2352 13.4375 52.3227C13.4348 53.7802 12.8593 55.1772 11.8369 56.2077C10.8146 57.2383 9.42876 57.8185 7.98293 57.8212ZM7.98293 48.6537C7.26305 48.6537 6.55933 48.8689 5.96076 49.272C5.3622 49.6752 4.89568 50.2482 4.62019 50.9186C4.3447 51.5891 4.27262 52.3268 4.41307 53.0385C4.55351 53.7503 4.90017 54.404 5.4092 54.9172C5.91824 55.4303 6.56679 55.7797 7.27284 55.9213C7.97889 56.0629 8.71074 55.9902 9.37582 55.7125C10.0409 55.4348 10.6094 54.9645 11.0093 54.3612C11.4093 53.7578 11.6227 53.0484 11.6227 52.3227C11.62 51.3505 11.2357 50.4188 10.5537 49.7313C9.87168 49.0438 8.94744 48.6564 7.98293 48.6537Z" fill="#696A6E"/>
<path d="M34.6647 27.5334C34.6627 28.4396 34.3943 29.3248 33.8934 30.0772C33.3925 30.8297 32.6817 31.4156 31.8506 31.7609C31.0195 32.1063 30.1056 32.1956 29.2242 32.0176C28.3428 31.8396 27.5335 31.4022 26.8986 30.7607C26.2636 30.1193 25.8316 29.3025 25.6569 28.4136C25.4823 27.5247 25.573 26.6036 25.9174 25.7667C26.2619 24.9297 26.8447 24.2144 27.5923 23.7112C28.3398 23.208 29.2186 22.9394 30.1175 22.9394C30.7155 22.9394 31.3077 23.0583 31.86 23.2893C32.4124 23.5203 32.9141 23.8588 33.3365 24.2856C33.7589 24.7123 34.0936 25.2188 34.3215 25.7761C34.5494 26.3335 34.6661 26.9306 34.6647 27.5334Z" fill="#F04461"/>
<path d="M30.0971 33.0319C29.0154 33.0339 27.9574 32.7123 27.0571 32.1078C26.1569 31.5032 25.4549 30.643 25.04 29.636C24.6251 28.629 24.516 27.5205 24.7266 26.451C24.9371 25.3814 25.4578 24.3989 26.2227 23.6279C26.9876 22.8568 27.9622 22.332 29.0232 22.1198C30.0843 21.9075 31.1839 22.0175 32.1829 22.4357C33.1818 22.8539 34.0352 23.5616 34.6349 24.4691C35.2346 25.3765 35.5537 26.443 35.5517 27.5334C35.549 28.9909 34.9734 30.3878 33.9511 31.4184C32.9287 32.449 31.5429 33.0292 30.0971 33.0319ZM30.0971 23.8541C29.3747 23.852 28.668 24.0661 28.0665 24.4691C27.4649 24.8722 26.9955 25.4461 26.7176 26.1183C26.4398 26.7904 26.3661 27.5305 26.5058 28.2449C26.6454 28.9593 26.9923 29.6158 27.5023 30.1314C28.0124 30.647 28.6627 30.9985 29.371 31.1413C30.0793 31.2841 30.8138 31.2118 31.4813 30.9337C32.1488 30.6555 32.7195 30.1839 33.121 29.5786C33.5225 28.9733 33.7369 28.2616 33.7369 27.5334C33.7369 26.5594 33.3537 25.6251 32.6714 24.9353C31.9891 24.2456 31.0633 23.8568 30.0971 23.8541Z" fill="#696A6E"/>
<path d="M59.4095 41.5108C61.9209 41.5108 63.9567 39.4586 63.9567 36.927C63.9567 34.3955 61.9209 32.3433 59.4095 32.3433C56.8982 32.3433 54.8623 34.3955 54.8623 36.927C54.8623 39.4586 56.8982 41.5108 59.4095 41.5108Z" fill="#F04461"/>
<path d="M59.4096 42.4358C58.3283 42.4378 57.2707 42.1165 56.3707 41.5124C55.4707 40.9083 54.7687 40.0487 54.3535 39.0423C53.9383 38.0359 53.8286 36.9279 54.0383 35.8587C54.248 34.7894 54.7677 33.8069 55.5316 33.0354C56.2954 32.264 57.2691 31.7383 58.3295 31.5249C59.3898 31.3116 60.4892 31.42 61.4883 31.8367C62.4875 32.2533 63.3415 32.9594 63.9425 33.8655C64.5434 34.7716 64.8642 35.8371 64.8642 36.9271C64.8642 38.3863 64.2898 39.7859 63.2672 40.8187C62.2445 41.8515 60.8572 42.4331 59.4096 42.4358ZM59.4096 33.258C58.6868 33.256 57.9797 33.4703 57.3779 33.8738C56.7761 34.2773 56.3067 34.8518 56.0292 35.5246C55.7517 36.1973 55.6785 36.9379 55.819 37.6526C55.9595 38.3673 56.3074 39.0238 56.8185 39.539C57.3295 40.0542 57.9808 40.4048 58.6898 40.5465C59.3988 40.6881 60.1335 40.6144 60.8009 40.3346C61.4683 40.0549 62.0382 39.5817 62.4385 38.9751C62.8388 38.3684 63.0514 37.6556 63.0494 36.9271C63.0467 35.9548 62.6623 35.0231 61.9803 34.3356C61.2983 33.6481 60.3741 33.2607 59.4096 33.258Z" fill="#696A6E"/>
<path d="M70.1656 5.49845C70.1676 6.40793 69.9018 7.29756 69.4018 8.05462C68.9018 8.81168 68.1901 9.4021 67.3569 9.75108C66.5238 10.1001 65.6066 10.1919 64.7216 10.015C63.8366 9.83804 63.0236 9.40029 62.3856 8.75719C61.7476 8.11408 61.3134 7.29456 61.1379 6.40245C60.9623 5.51033 61.0534 4.58578 61.3996 3.74591C61.7458 2.90604 62.3316 2.18865 63.0826 1.68464C63.8336 1.18062 64.7161 0.912652 65.6184 0.914684C66.8235 0.917399 67.9786 1.4012 68.8308 2.26024C69.6829 3.11927 70.1629 4.28359 70.1656 5.49845Z" fill="#F04461"/>
<path d="M65.6186 11.0072C64.5373 11.0092 63.4797 10.6879 62.5797 10.0838C61.6797 9.47975 60.9777 8.62012 60.5625 7.61371C60.1473 6.6073 60.0376 5.49936 60.2473 4.43009C60.457 3.36082 60.9767 2.3783 61.7406 1.60686C62.5044 0.835421 63.4781 0.309742 64.5385 0.0963518C65.5988 -0.117038 66.6981 -0.00854889 67.6973 0.408091C68.6964 0.82473 69.5505 1.53079 70.1515 2.43692C70.7524 3.34305 71.0732 4.40851 71.0732 5.49848C71.0732 6.9577 70.4988 8.35732 69.4762 9.39011C68.4535 10.4229 67.0661 11.0045 65.6186 11.0072ZM65.6186 1.82941C64.8958 1.82738 64.1887 2.0417 63.5869 2.44521C62.9851 2.84872 62.5157 3.42325 62.2382 4.09598C61.9606 4.76871 61.8875 5.50935 62.028 6.22402C62.1685 6.9387 62.5164 7.59524 63.0274 8.11043C63.5385 8.62561 64.1898 8.97624 64.8988 9.11788C65.6078 9.25952 66.3425 9.18579 67.0099 8.90604C67.6772 8.62629 68.2472 8.1531 68.6475 7.54647C69.0478 6.93983 69.2604 6.22705 69.2584 5.49848C69.2557 4.52621 68.8713 3.59454 68.1893 2.90705C67.5073 2.21955 66.5831 1.83212 65.6186 1.82941Z" fill="#696A6E"/>
<path d="M67.8615 53.2888C67.6208 53.2888 67.39 53.1924 67.2199 53.0209C67.0497 52.8493 66.9541 52.6167 66.9541 52.3741V45.7656C66.9541 45.5231 67.0497 45.2904 67.2199 45.1189C67.39 44.9473 67.6208 44.851 67.8615 44.851C68.1022 44.851 68.333 44.9473 68.5031 45.1189C68.6733 45.2904 68.7689 45.5231 68.7689 45.7656V52.4152C68.7584 52.6506 68.6582 52.8728 68.4891 53.0356C68.3201 53.1983 68.0953 53.289 67.8615 53.2888Z" fill="#D3DADE"/>
<path d="M71.1442 49.9794H64.5783C64.3376 49.9794 64.1068 49.883 63.9367 49.7115C63.7665 49.54 63.6709 49.3073 63.6709 49.0647C63.6709 48.8221 63.7665 48.5895 63.9367 48.4179C64.1068 48.2464 64.3376 48.15 64.5783 48.15H71.1442C71.3849 48.15 71.6157 48.2464 71.7859 48.4179C71.956 48.5895 72.0516 48.8221 72.0516 49.0647C72.0516 49.3073 71.956 49.54 71.7859 49.7115C71.6157 49.883 71.3849 49.9794 71.1442 49.9794Z" fill="#D3DADE"/>
</g>
<defs>
<clipPath id="clip0_960_847">
<rect width="73" height="80" fill="white"/>
</clipPath>
</defs>
</svg>
