<svg width="80" height="79" viewBox="0 0 80 79" fill="none" xmlns="http://www.w3.org/2000/svg">
<g clip-path="url(#clip0_960_811)">
<path d="M2.50483 52.0387C2.30303 52.039 2.10639 51.9752 1.94359 51.8566C1.7808 51.738 1.66035 51.5708 1.59981 51.3793C0.0869328 46.2927 -0.359103 40.9513 0.28936 35.6862C0.937822 30.4211 2.66695 25.3446 5.36953 20.7715C8.0721 16.1985 11.6905 12.2264 16.0003 9.10165C20.3101 5.97687 25.2194 3.766 30.4238 2.60615C30.5462 2.57525 30.6736 2.56929 30.7984 2.58863C30.9232 2.60797 31.0428 2.65222 31.1499 2.7187C31.2571 2.78519 31.3496 2.87254 31.422 2.97551C31.4943 3.07847 31.5449 3.19492 31.5709 3.31786C31.5988 3.4368 31.6026 3.56007 31.5822 3.68051C31.5618 3.80095 31.5175 3.91614 31.4519 4.01938C31.3862 4.12263 31.3006 4.21186 31.2 4.28189C31.0994 4.35192 30.9858 4.40134 30.8658 4.42729C25.9086 5.52534 21.2313 7.62549 17.1246 10.5973C13.0179 13.569 9.56954 17.3489 6.99368 21.7021C4.41782 26.0553 2.76952 30.8888 2.15119 35.9023C1.53286 40.9158 1.95771 46.0022 3.39933 50.8455C3.46826 51.0829 3.44071 51.3376 3.32261 51.5549C3.20451 51.7722 3.00531 51.9347 2.76792 52.0073C2.68177 52.028 2.59346 52.0386 2.50483 52.0387ZM38.8637 79C32.5846 78.9955 26.3997 77.4807 20.8364 74.5848C15.2732 71.6889 10.4967 67.4978 6.9142 62.369C6.78875 62.1649 6.74706 61.9206 6.79775 61.6868C6.84845 61.453 6.98765 61.2475 7.18651 61.113C7.38537 60.9784 7.62865 60.9251 7.86594 60.9641C8.10324 61.0031 8.31636 61.1314 8.46116 61.3224C11.2527 65.3282 14.8165 68.7427 18.9457 71.3675C23.0749 73.9923 27.6872 75.7752 32.5149 76.6126C37.3426 77.45 42.2894 77.3252 47.0682 76.2456C51.847 75.166 56.3626 73.153 60.3528 70.3234C60.4499 70.2277 60.5669 70.1543 60.6955 70.1084C60.8242 70.0624 60.9614 70.0451 61.0976 70.0575C61.2337 70.0699 61.3655 70.1118 61.4836 70.1803C61.6017 70.2487 61.7033 70.3421 61.7813 70.4538C61.8593 70.5654 61.9117 70.6927 61.935 70.8267C61.9582 70.9607 61.9517 71.0981 61.9158 71.2294C61.88 71.3606 61.8157 71.4824 61.7275 71.5863C61.6392 71.6901 61.5292 71.7735 61.4051 71.8306C54.8337 76.5133 46.9477 79.0215 38.8637 79ZM67.2036 66.3462C66.9752 66.3482 66.754 66.2662 66.5827 66.1159C66.3975 65.9511 66.2849 65.7204 66.2691 65.4737C66.2534 65.227 66.3358 64.984 66.4985 64.7972C70.7748 60.0222 73.7271 54.2219 75.0647 47.9673C75.0831 47.8416 75.1271 47.721 75.1941 47.6129C75.261 47.5048 75.3495 47.4114 75.4541 47.3386C75.5587 47.2657 75.6771 47.2149 75.8022 47.1892C75.9272 47.1635 76.0562 47.1635 76.1813 47.1893C76.3063 47.215 76.4247 47.2659 76.5293 47.3388C76.6338 47.4117 76.7223 47.5051 76.7892 47.6133C76.8561 47.7214 76.9001 47.8421 76.9184 47.9677C76.9367 48.0934 76.929 48.2215 76.8958 48.3441C75.4976 54.9223 72.396 61.0232 67.8981 66.0427C67.8101 66.1387 67.7028 66.2152 67.5832 66.2675C67.4635 66.3198 67.3343 66.3466 67.2036 66.3462ZM76.8221 41.2793C76.5737 41.2793 76.3355 41.1812 76.1598 41.0065C75.9842 40.8318 75.8855 40.5948 75.8855 40.3478C75.8815 33.2976 73.8464 26.3962 70.0212 20.4605C66.196 14.5249 60.7409 9.80356 54.3017 6.85548C54.1571 6.83551 54.0192 6.78218 53.899 6.69976C53.7787 6.61733 53.6796 6.50809 53.6093 6.38076C53.5391 6.25343 53.4998 6.11153 53.4946 5.96641C53.4893 5.82128 53.5182 5.67693 53.579 5.5449C53.6398 5.41287 53.7308 5.29681 53.8448 5.20599C53.9587 5.11516 54.0924 5.05209 54.2352 5.02181C54.378 4.99152 54.526 4.99487 54.6673 5.03157C54.8085 5.06827 54.9392 5.13732 55.0489 5.2332C61.8058 8.32144 67.5322 13.2695 71.5511 19.4922C75.5699 25.7149 77.7131 32.952 77.7271 40.3478C77.7273 40.5895 77.6329 40.8218 77.4641 40.9956C77.2952 41.1694 77.065 41.2712 76.8221 41.2793ZM46.9563 4.41682C46.89 4.42657 46.8226 4.42657 46.7563 4.41682C44.1628 3.85984 41.517 3.57915 38.8637 3.57952C38.6153 3.57952 38.3771 3.48138 38.2014 3.30669C38.0258 3.13199 37.9271 2.89506 37.9271 2.64801C37.9271 2.40096 38.0258 2.16403 38.2014 1.98934C38.3771 1.81465 38.6153 1.71651 38.8637 1.71651C41.6515 1.71403 44.4316 2.00877 47.1562 2.59568C47.3977 2.65078 47.6079 2.79778 47.7416 3.00518C47.8754 3.21257 47.9222 3.46385 47.8718 3.70511C47.8221 3.90894 47.7046 4.09009 47.5385 4.21926C47.3723 4.34842 47.1672 4.41803 46.9563 4.41682ZM19.2267 66.8591C19.0199 66.8601 18.8191 66.7898 18.6585 66.6602C12.707 62.139 8.46003 55.7561 6.60238 48.5406C4.74474 41.3251 5.38469 33.6976 8.41906 26.8881C8.46813 26.775 8.53922 26.6728 8.62823 26.5872C8.71724 26.5016 8.8224 26.4344 8.93766 26.3895C9.05291 26.3445 9.17597 26.3228 9.29974 26.3254C9.42351 26.328 9.54554 26.3549 9.65878 26.4047C9.77202 26.4544 9.87423 26.526 9.95952 26.6152C10.0448 26.7044 10.1115 26.8096 10.1557 26.9246C10.1999 27.0396 10.2208 27.1622 10.2172 27.2852C10.2135 27.4083 10.1854 27.5294 10.1344 27.6416C7.26835 34.0669 6.66072 41.2647 8.40942 48.0753C10.1581 54.8859 14.1613 60.9126 19.774 65.1844C19.9308 65.3023 20.0463 65.4663 20.1043 65.6531C20.1622 65.84 20.1595 66.0402 20.0966 66.2254C20.0338 66.4107 19.9139 66.5716 19.754 66.6853C19.5941 66.799 19.4023 66.8598 19.2057 66.8591H19.2267ZM38.8637 73.4633C34.5608 73.4744 30.2968 72.6532 26.3091 71.0456C26.0806 70.9505 25.8986 70.7701 25.8022 70.5432C25.7058 70.3162 25.7027 70.0607 25.7934 69.8315C25.8385 69.7172 25.9061 69.613 25.9923 69.525C26.0785 69.4371 26.1815 69.3672 26.2952 69.3194C26.4089 69.2716 26.5311 69.2469 26.6546 69.2468C26.7781 69.2467 26.9003 69.2711 27.0142 69.3187C33.046 71.7452 39.6861 72.251 46.0191 70.7663C52.3521 69.2816 58.0661 65.8796 62.3733 61.0293C62.4528 60.9312 62.5515 60.8501 62.6635 60.791C62.7754 60.7319 62.8983 60.6961 63.0245 60.6856C63.1508 60.6751 63.2779 60.6902 63.3982 60.73C63.5184 60.7697 63.6293 60.8334 63.7241 60.917C63.8189 61.0007 63.8957 61.1026 63.9497 61.2166C64.0037 61.3306 64.034 61.4543 64.0385 61.5803C64.0431 61.7063 64.0219 61.8318 63.9762 61.9494C63.9306 62.067 63.8614 62.1741 63.7729 62.2643C60.6538 65.7773 56.8206 68.592 52.5267 70.5225C48.2328 72.453 43.5759 73.4554 38.8637 73.4633ZM66.2986 58.4127C66.1193 58.4147 65.9435 58.3637 65.7934 58.2662C65.6901 58.2012 65.6007 58.1166 65.5304 58.0171C65.4602 57.9176 65.4104 57.8053 65.384 57.6866C65.3575 57.5679 65.355 57.4452 65.3765 57.3255C65.398 57.2058 65.4432 57.0915 65.5093 56.9893C68.1512 52.7914 69.7572 48.0314 70.1961 43.0983C70.6351 38.1651 69.8945 33.1987 68.035 28.6046C67.9873 28.4921 67.9629 28.3712 67.9631 28.2492C67.9634 28.1271 67.9883 28.0064 68.0364 27.8941C68.0845 27.7818 68.1548 27.6803 68.2431 27.5956C68.3315 27.5109 68.436 27.4447 68.5506 27.4009C68.6644 27.3534 68.7867 27.3289 68.9102 27.3291C69.0336 27.3292 69.1558 27.3539 69.2696 27.4017C69.3833 27.4494 69.4863 27.5194 69.5725 27.6073C69.6586 27.6953 69.7263 27.7995 69.7713 27.9138C71.7366 32.7839 72.5141 38.0478 72.0404 43.2743C71.5666 48.5009 69.8551 53.5415 67.0457 57.9836C66.9636 58.1083 66.8533 58.2121 66.7235 58.2866C66.5937 58.3611 66.4482 58.4043 66.2986 58.4127ZM65.7619 23.3923C65.6087 23.3912 65.4581 23.3535 65.3225 23.2825C65.187 23.2115 65.0706 23.1091 64.9831 22.9841C63.9126 21.3938 62.6973 19.9048 61.3525 18.5359C61.2668 18.448 61.1994 18.3441 61.1541 18.2302C61.1088 18.1163 61.0865 17.9947 61.0884 17.8722C61.0904 17.7498 61.1166 17.6289 61.1655 17.5165C61.2144 17.4041 61.2851 17.3024 61.3736 17.2172C61.462 17.132 61.5665 17.0649 61.681 17.0198C61.7955 16.9748 61.9178 16.9526 62.0409 16.9545C62.164 16.9565 62.2856 16.9825 62.3986 17.0312C62.5116 17.0798 62.6138 17.1501 62.6995 17.2381C64.1242 18.6973 65.41 20.2845 66.5406 21.9794C66.6691 22.1799 66.7155 22.4217 66.6705 22.6552C66.6255 22.8887 66.4925 23.0962 66.2986 23.2353C66.1386 23.3379 65.9522 23.3924 65.7619 23.3923ZM12.9652 21.9794C12.7638 21.9778 12.5682 21.9118 12.4075 21.791C12.2096 21.6413 12.0788 21.4202 12.0433 21.1754C12.0079 20.9306 12.0706 20.6818 12.2181 20.4827C17.3444 13.6895 24.8978 9.11352 33.3186 7.6995C41.7394 6.28548 50.3847 8.14142 57.4693 12.8841C57.6721 13.0259 57.8117 13.2403 57.8588 13.4823C57.9059 13.7244 57.8568 13.9752 57.7219 14.1819C57.5795 14.3841 57.3629 14.5226 57.1189 14.5676C56.8749 14.6126 56.6228 14.5606 56.417 14.4227C49.726 9.93992 41.5587 8.18637 33.6043 9.5247C25.6498 10.863 18.5169 15.1909 13.6808 21.613C13.595 21.7216 13.4866 21.8104 13.3631 21.8737C13.2397 21.9369 13.104 21.9729 12.9652 21.9794ZM23.794 19.0488C23.5925 19.05 23.3961 18.9867 23.2337 18.8681C23.0714 18.7495 22.9518 18.582 22.8927 18.3905C22.8336 18.1989 22.8382 17.9936 22.9058 17.8048C22.9734 17.6161 23.1003 17.4541 23.2678 17.3428C27.8671 14.2303 33.3006 12.5639 38.8637 12.5596C39.1121 12.5596 39.3503 12.6578 39.526 12.8325C39.7016 13.0072 39.8003 13.2441 39.8003 13.4911C39.8003 13.7382 39.7016 13.9751 39.526 14.1498C39.3503 14.3245 39.1121 14.4227 38.8637 14.4227C33.6773 14.4136 28.6074 15.9521 24.3096 18.8395C24.1657 18.964 23.9844 19.0376 23.794 19.0488ZM12.6285 47.5486C12.4189 47.5494 12.2153 47.4794 12.0509 47.3501C11.8865 47.2208 11.7711 47.0399 11.7235 46.8369C11.2143 44.711 10.9565 42.5332 10.9552 40.3478C10.9547 33.7205 13.3402 27.3121 17.6798 22.2829C17.7595 22.1887 17.8572 22.1113 17.9673 22.0549C18.0773 21.9986 18.1975 21.9644 18.3208 21.9546C18.4442 21.9447 18.5683 21.9592 18.686 21.9973C18.8037 22.0354 18.9126 22.0963 19.0065 22.1765C19.1003 22.2568 19.1773 22.3547 19.2329 22.4647C19.2885 22.5746 19.3216 22.6945 19.3303 22.8173C19.3391 22.94 19.3232 23.0633 19.2838 23.18C19.2443 23.2967 19.182 23.4044 19.1005 23.497C16.4217 26.6065 14.5217 30.3028 13.5559 34.2832C12.5901 38.2637 12.586 42.415 13.544 46.3974C13.6012 46.6388 13.5603 46.8928 13.4303 47.1045C13.3003 47.3161 13.0916 47.4682 12.8495 47.5277L12.6285 47.5486ZM38.8637 68.0941C33.8664 68.0923 28.9611 66.7571 24.6594 64.2277C20.3577 61.6982 16.8171 58.0672 14.407 53.7133C14.3062 53.4985 14.2916 53.2537 14.366 53.0285C14.4404 52.8034 14.5983 52.6149 14.8076 52.5015C15.0169 52.3881 15.2617 52.3583 15.4923 52.4182C15.7228 52.478 15.9218 52.623 16.0486 52.8237C19.0217 58.1803 23.8024 62.3197 29.5465 64.5106C35.2906 66.7015 41.6284 66.803 47.4404 64.7972C47.5583 64.7493 47.6847 64.7259 47.8121 64.7283C47.9394 64.7307 48.0649 64.7589 48.1808 64.8112C48.2968 64.8634 48.4009 64.9387 48.4866 65.0323C48.5724 65.1259 48.6381 65.2359 48.6796 65.3556C48.7212 65.4754 48.7377 65.6022 48.7283 65.7285C48.7189 65.8548 48.6837 65.9779 48.6248 66.0902C48.566 66.2025 48.4847 66.3017 48.386 66.3817C48.2873 66.4617 48.1732 66.5209 48.0507 66.5555C45.0974 67.5796 41.9913 68.0998 38.8637 68.0941ZM54.1965 63.3424C54.0441 63.3433 53.8937 63.3076 53.7581 63.2384C53.6226 63.1691 53.5058 63.0684 53.4178 62.9446C53.3482 62.8431 53.2996 62.7288 53.2747 62.6085C53.2497 62.4881 53.249 62.3641 53.2724 62.2435C53.2959 62.1228 53.3432 62.008 53.4114 61.9056C53.4797 61.8032 53.5677 61.7153 53.6703 61.6468C56.8858 59.4238 59.5638 56.5172 61.5104 53.1377C61.632 52.9228 61.8344 52.7647 62.0731 52.698C62.3118 52.6313 62.5673 52.6614 62.7837 52.7818C63.0005 52.9048 63.1597 53.108 63.2267 53.3471C63.2937 53.5862 63.2631 53.8419 63.1415 54.0587C61.0545 57.6843 58.1779 60.7992 54.7227 63.1749C54.5694 63.2845 54.3853 63.3432 54.1965 63.3424ZM65.0252 47.7894H64.7937C64.554 47.7277 64.3486 47.5742 64.2224 47.3624C64.0962 47.1506 64.0595 46.8977 64.1202 46.659C64.6299 44.6042 64.8878 42.4956 64.8884 40.3792C64.8901 35.0173 63.2201 29.7867 60.1085 25.408C56.9969 21.0293 52.5967 17.7178 47.514 15.9298C47.2796 15.8479 47.0875 15.6768 46.9799 15.454C46.8723 15.2312 46.8582 14.975 46.9405 14.7419C47.0228 14.5087 47.1949 14.3176 47.4189 14.2106C47.6429 14.1037 47.9005 14.0896 48.1349 14.1715C53.577 16.0851 58.2896 19.628 61.6249 24.3134C64.9603 28.9988 66.7547 34.5965 66.7616 40.3373C66.7693 42.6168 66.49 44.8882 65.9303 47.0986C65.8786 47.2977 65.7614 47.4739 65.5974 47.599C65.4334 47.7242 65.232 47.7912 65.0252 47.7894Z" fill="#D3DADE"/>
<path d="M38.8635 53.5982H65.4144V56.7904H38.8635V53.5982ZM38.8635 46.5543H62.0259V49.7466H38.8635V46.5543ZM38.8635 39.5209H80.0001V42.7132H38.8635V39.5209ZM38.8635 32.4875H73.023V35.6798H38.8635V32.4875ZM38.8635 25.4542H65.4144V28.6464H38.8635V25.4542ZM32.4968 56.7904H17.2166V54.9483H32.4968V56.7904ZM32.4968 52.7399H19.1634V50.8979H32.4968V52.7399ZM32.5073 48.6895H8.83984V46.8474H32.5073V48.6895ZM32.4968 44.639H12.8388V42.7969H32.4968V44.639ZM32.4968 40.5885H17.2166V38.7464H32.4968V40.5885Z" fill="#ABB1B4"/>
<path d="M54.7224 36.7683C54.7155 34.1512 54.0508 31.5775 52.789 29.281C51.5271 26.9846 49.7081 25.0383 47.4972 23.6191C45.2864 22.1999 42.7539 21.353 40.1301 21.1552C37.5063 20.9574 34.8745 21.4151 32.4738 22.4867C30.0732 23.5582 27.98 25.2096 26.3845 27.2907C24.7891 29.3718 23.742 31.8165 23.3385 34.4026C22.9351 36.9887 23.188 39.634 24.0743 42.0981C24.9607 44.5622 26.4523 46.7668 28.4136 48.5115C29.4457 49.4128 30.2739 50.5216 30.8435 51.7647C31.4131 53.0077 31.7111 54.3568 31.718 55.7228V61.113H46.1352V55.7228C46.1433 54.355 46.4441 53.0045 47.0174 51.7611C47.5908 50.5178 48.4237 49.41 49.4607 48.5115C51.1213 47.0343 52.4487 45.2241 53.3556 43.2001C54.2625 41.1761 54.7283 38.9841 54.7224 36.7683Z" fill="white"/>
<path d="M46.1353 62.0445H31.718C31.4696 62.0445 31.2314 61.9464 31.0557 61.7717C30.8801 61.597 30.7814 61.3601 30.7814 61.113V55.7228C30.7757 54.486 30.5063 53.2644 29.9912 52.1386C29.476 51.0129 28.7267 50.0085 27.7927 49.1918C25.76 47.4133 24.1951 45.1677 23.234 42.6504C22.273 40.1331 21.9449 37.4204 22.2784 34.7483C22.742 31.0309 24.4453 27.5754 27.1162 24.9343C29.787 22.2932 33.271 20.6189 37.0114 20.1791C39.3636 19.9017 41.7483 20.127 44.006 20.8399C46.2636 21.5529 48.3422 22.7371 50.1026 24.3133C51.8661 25.8764 53.2773 27.7928 54.2436 29.9366C55.2099 32.0804 55.7095 34.4032 55.7095 36.7526C55.7095 39.102 55.2099 41.4248 54.2436 43.5686C53.2773 45.7124 51.8661 47.6287 50.1026 49.1918C49.1697 50.0049 48.4209 51.0056 47.9057 52.1278C47.3905 53.2501 47.1207 54.4683 47.114 55.7019V61.0921C47.117 61.2198 47.0936 61.3467 47.0452 61.465C46.9968 61.5833 46.9244 61.6904 46.8327 61.7798C46.7409 61.8691 46.6316 61.9387 46.5116 61.9842C46.3917 62.0298 46.2636 62.0503 46.1353 62.0445ZM32.623 60.1815H45.2513V55.7228C45.2584 54.227 45.5837 52.7495 46.2058 51.3876C46.8279 50.0257 47.7328 48.8101 48.8609 47.8207C50.4298 46.4342 51.6855 44.7329 52.5455 42.8288C53.4054 40.9246 53.85 38.8609 53.85 36.7735C53.85 34.6861 53.4054 32.6224 52.5455 30.7183C51.6855 28.8142 50.4298 27.1128 48.8609 25.7263C47.2977 24.322 45.4498 23.2674 43.442 22.6337C41.4342 22 39.3132 21.8018 37.2218 22.0526C33.899 22.4385 30.803 23.9237 28.4308 26.2697C26.0586 28.6158 24.5479 31.6865 24.1411 34.989C23.8416 37.3626 24.1309 39.7731 24.984 42.0099C25.837 44.2466 27.2276 46.2417 29.0345 47.8207C30.1598 48.8112 31.0614 50.0274 31.6799 51.3894C32.2985 52.7515 32.6199 54.2283 32.623 55.7228V60.1815Z" fill="#696A6E"/>
<path d="M29.3081 61.113H48.5346V73.4424H29.3081V61.113Z" fill="#F04461"/>
<path d="M48.5347 74.3739H29.3082C29.0598 74.3739 28.8216 74.2757 28.6459 74.1011C28.4703 73.9264 28.3716 73.6894 28.3716 73.4424V61.113C28.3716 60.866 28.4703 60.629 28.6459 60.4543C28.8216 60.2797 29.0598 60.1815 29.3082 60.1815H48.5347C48.7831 60.1815 49.0213 60.2797 49.197 60.4543C49.3726 60.629 49.4713 60.866 49.4713 61.113V73.4424C49.4713 73.6894 49.3726 73.9264 49.197 74.1011C49.0213 74.2757 48.7831 74.3739 48.5347 74.3739ZM30.2448 72.5109H47.5981V62.0445H30.2448V72.5109Z" fill="#696A6E"/>
<path d="M48.5347 65.1007H29.3082C29.0598 65.1007 28.8216 65.0025 28.6459 64.8278C28.4703 64.6531 28.3716 64.4162 28.3716 64.1692C28.3716 63.9221 28.4703 63.6852 28.6459 63.5105C28.8216 63.3358 29.0598 63.2377 29.3082 63.2377H48.5347C48.7831 63.2377 49.0213 63.3358 49.197 63.5105C49.3726 63.6852 49.4713 63.9221 49.4713 64.1692C49.4713 64.4162 49.3726 64.6531 49.197 64.8278C49.0213 65.0025 48.7831 65.1007 48.5347 65.1007ZM48.5347 67.9057H29.3082C29.0598 67.9057 28.8216 67.8075 28.6459 67.6328C28.4703 67.4581 28.3716 67.2212 28.3716 66.9742C28.3716 66.7271 28.4703 66.4902 28.6459 66.3155C28.8216 66.1408 29.0598 66.0426 29.3082 66.0426H48.5347C48.7831 66.0426 49.0213 66.1408 49.197 66.3155C49.3726 66.4902 49.4713 66.7271 49.4713 66.9742C49.4713 67.2212 49.3726 67.4581 49.197 67.6328C49.0213 67.8075 48.7831 67.9057 48.5347 67.9057ZM48.5347 70.7211H29.3082C29.0598 70.7211 28.8216 70.623 28.6459 70.4483C28.4703 70.2736 28.3716 70.0367 28.3716 69.7896C28.3716 69.5425 28.4703 69.3056 28.6459 69.1309C28.8216 68.9562 29.0598 68.8581 29.3082 68.8581H48.5347C48.7831 68.8581 49.0213 68.9562 49.197 69.1309C49.3726 69.3056 49.4713 69.5425 49.4713 69.7896C49.4713 70.0367 49.3726 70.2736 49.197 70.4483C49.0213 70.623 48.7831 70.7211 48.5347 70.7211ZM35.8854 62.0445C35.637 62.0445 35.3988 61.9464 35.2231 61.7717C35.0475 61.597 34.9488 61.36 34.9488 61.113V33.2516C34.9488 33.0045 35.0475 32.7676 35.2231 32.5929C35.3988 32.4182 35.637 32.3201 35.8854 32.3201C36.1338 32.3201 36.372 32.4182 36.5477 32.5929C36.7233 32.7676 36.822 33.0045 36.822 33.2516V61.113C36.822 61.36 36.7233 61.597 36.5477 61.7717C36.372 61.9464 36.1338 62.0445 35.8854 62.0445ZM41.9575 62.0445C41.7091 62.0445 41.4709 61.9464 41.2952 61.7717C41.1196 61.597 41.0209 61.36 41.0209 61.113V33.2516C41.0209 33.0045 41.1196 32.7676 41.2952 32.5929C41.4709 32.4182 41.7091 32.3201 41.9575 32.3201C42.2059 32.3201 42.4441 32.4182 42.6198 32.5929C42.7954 32.7676 42.8941 33.0045 42.8941 33.2516V61.113C42.8941 61.36 42.7954 61.597 42.6198 61.7717C42.4441 61.9464 42.2059 62.0445 41.9575 62.0445Z" fill="#696A6E"/>
<path d="M44.1251 34.7483H33.7384C33.49 34.7483 33.2517 34.6501 33.0761 34.4754C32.9004 34.3007 32.8018 34.0638 32.8018 33.8168C32.8018 33.5697 32.9004 33.3328 33.0761 33.1581C33.2517 32.9834 33.49 32.8853 33.7384 32.8853H44.1251C44.3735 32.8853 44.6117 32.9834 44.7874 33.1581C44.963 33.3328 45.0617 33.5697 45.0617 33.8168C45.0617 34.0638 44.963 34.3007 44.7874 34.4754C44.6117 34.6501 44.3735 34.7483 44.1251 34.7483Z" fill="#696A6E"/>
<path d="M25.4037 11.2723C25.4021 10.3225 25.1616 9.3883 24.7042 8.55463C24.2468 7.72095 23.5869 7.01432 22.7847 6.49907C21.9826 5.98382 21.0636 5.67633 20.1114 5.60459C19.1592 5.53284 18.2041 5.69913 17.333 6.08831C16.4619 6.47749 15.7026 7.07719 15.1241 7.83282C14.5456 8.58844 14.1664 9.47598 14.0209 10.4146C13.8754 11.3533 13.9684 12.3132 14.2912 13.207C14.6141 14.1008 15.1566 14.9001 15.8694 15.5321C16.2453 15.8557 16.5469 16.2559 16.7539 16.7055C16.9608 17.1551 17.0683 17.6437 17.0691 18.1382V20.0849H22.3308V18.1382C22.3335 17.6435 22.4407 17.1549 22.6456 16.7041C22.8504 16.2533 23.1484 15.8504 23.52 15.5216C24.1187 14.9864 24.5962 14.3308 24.921 13.5982C25.2457 12.8657 25.4103 12.0728 25.4037 11.2723Z" fill="white"/>
<path d="M22.2891 21.0164H17.0273C16.7789 21.0164 16.5407 20.9183 16.365 20.7436C16.1894 20.5689 16.0907 20.332 16.0907 20.0849V18.1382C16.0875 17.775 16.0071 17.4165 15.8548 17.0864C15.7024 16.7563 15.4816 16.462 15.2067 16.2228C14.1935 15.3298 13.4775 14.1513 13.1536 12.8439C12.8298 11.5365 12.9135 10.1621 13.3937 8.90313C13.8739 7.6442 14.7278 6.56033 15.842 5.79549C16.9563 5.03065 18.2781 4.62103 19.6319 4.62103C20.9857 4.62103 22.3075 5.03065 23.4217 5.79549C24.536 6.56033 25.3899 7.6442 25.8701 8.90313C26.3502 10.1621 26.434 11.5365 26.1101 12.8439C25.7863 14.1513 25.0703 15.3298 24.057 16.2228C23.7836 16.4625 23.5644 16.7572 23.4138 17.0873C23.2632 17.4175 23.1848 17.7756 23.1836 18.1382V20.0849C23.1838 20.3249 23.091 20.5557 22.9243 20.7292C22.7577 20.9027 22.5301 21.0056 22.2891 21.0164ZM18.006 19.1534H21.3525V18.1068C21.3547 17.4811 21.49 16.863 21.7493 16.293C22.0087 15.723 22.3863 15.214 22.8574 14.7994C23.3622 14.3536 23.7664 13.8064 24.0431 13.1939C24.3199 12.5814 24.463 11.9176 24.463 11.2461C24.463 10.5746 24.3199 9.91071 24.0431 9.29823C23.7664 8.68575 23.3622 8.13857 22.8574 7.69275C22.3548 7.23975 21.7601 6.89965 21.1137 6.69557C20.4672 6.4915 19.7842 6.42822 19.111 6.51005C18.1932 6.61576 17.3258 6.98328 16.6133 7.5683C15.9009 8.15333 15.3738 8.93086 15.0957 9.80713C14.8176 10.6834 14.8003 11.621 15.0459 12.5068C15.2916 13.3926 15.7897 14.1888 16.4801 14.7994C16.9547 15.2118 17.3353 15.7201 17.5966 16.2904C17.858 16.8608 17.9939 17.48 17.9955 18.1068L18.006 19.1534Z" fill="#696A6E"/>
<path d="M16.1958 20.0849H23.1519V24.5436H16.1958V20.0849Z" fill="#F04461"/>
<path d="M23.1519 25.4856H16.1959C15.9475 25.4856 15.7092 25.3874 15.5336 25.2128C15.358 25.0381 15.2593 24.8011 15.2593 24.5541V20.0849C15.2593 19.8379 15.358 19.601 15.5336 19.4263C15.7092 19.2516 15.9475 19.1534 16.1959 19.1534H23.1519C23.4003 19.1534 23.6386 19.2516 23.8142 19.4263C23.9899 19.601 24.0885 19.8379 24.0885 20.0849V24.5541C24.0885 24.8011 23.9899 25.0381 23.8142 25.2128C23.6386 25.3874 23.4003 25.4856 23.1519 25.4856ZM17.1325 23.6226H22.2153V21.0165H17.1325V23.6226Z" fill="#696A6E"/>
<path d="M19.6793 21.0164C19.4309 21.0164 19.1926 20.9183 19.017 20.7436C18.8414 20.5689 18.7427 20.332 18.7427 20.0849V11.7956C18.7427 11.5485 18.8414 11.3116 19.017 11.1369C19.1926 10.9622 19.4309 10.8641 19.6793 10.8641C19.9277 10.8641 20.1659 10.9622 20.3415 11.1369C20.5172 11.3116 20.6159 11.5485 20.6159 11.7956V20.0849C20.6159 20.332 20.5172 20.5689 20.3415 20.7436C20.1659 20.9183 19.9277 21.0164 19.6793 21.0164Z" fill="#696A6E"/>
<path d="M19.6792 12.7271C19.5561 12.7273 19.4342 12.7033 19.3205 12.6566C19.2067 12.6099 19.1033 12.5414 19.0162 12.4549L17.0378 10.4663C16.862 10.2915 16.7632 10.0543 16.7632 9.80695C16.7632 9.55964 16.862 9.32245 17.0378 9.14757C17.2136 8.9727 17.4521 8.87445 17.7008 8.87445C17.9495 8.87445 18.1879 8.9727 18.3638 9.14757L20.3422 11.1152C20.4294 11.2018 20.4985 11.3045 20.5457 11.4177C20.5929 11.5308 20.6172 11.6521 20.6172 11.7746C20.6172 11.8971 20.5929 12.0184 20.5457 12.1316C20.4985 12.2447 20.4294 12.3475 20.3422 12.434C20.1684 12.6144 19.9303 12.7196 19.6792 12.7271Z" fill="#696A6E"/>
<path d="M19.6792 12.7271C19.4937 12.7274 19.3124 12.6729 19.1581 12.5705C19.0038 12.4682 18.8836 12.3226 18.8125 12.1522C18.7415 11.9819 18.723 11.7943 18.7592 11.6135C18.7955 11.4326 18.8849 11.2665 19.0162 11.1362L21.0473 9.16852C21.1343 9.08181 21.2376 9.01302 21.3514 8.96608C21.4651 8.91914 21.5871 8.89498 21.7102 8.89498C21.8334 8.89498 21.9554 8.91914 22.0691 8.96608C22.1829 9.01302 22.2862 9.08181 22.3732 9.16852C22.5443 9.34587 22.6398 9.58213 22.6398 9.8279C22.6398 10.0737 22.5443 10.3099 22.3732 10.4873L20.3422 12.455C20.165 12.6277 19.9273 12.7252 19.6792 12.7271ZM38.8636 17.7928C38.6152 17.7928 38.377 17.6947 38.2013 17.52C38.0257 17.3453 37.927 17.1083 37.927 16.8613V13.2085C37.927 12.9615 38.0257 12.7245 38.2013 12.5499C38.377 12.3752 38.6152 12.277 38.8636 12.277C39.112 12.277 39.3502 12.3752 39.5259 12.5499C39.7015 12.7245 39.8002 12.9615 39.8002 13.2085V16.8927C39.792 17.1343 39.6897 17.3632 39.515 17.5312C39.3402 17.6991 39.1066 17.7929 38.8636 17.7928ZM44.1254 18.4312C44.0556 18.4411 43.9847 18.4411 43.9149 18.4312C43.7948 18.4042 43.6812 18.3536 43.581 18.2824C43.4807 18.2111 43.3957 18.1207 43.3311 18.0164C43.2664 17.9121 43.2233 17.7961 43.2043 17.675C43.1853 17.5539 43.1907 17.4303 43.2204 17.3113L44.0728 13.7318C44.0997 13.6062 44.1521 13.4874 44.2269 13.3827C44.3017 13.278 44.3972 13.1895 44.5076 13.1229C44.618 13.0562 44.7409 13.0127 44.8688 12.9951C44.9967 12.9774 45.1269 12.9859 45.2514 13.0201C45.3716 13.0472 45.4851 13.0978 45.5854 13.169C45.6856 13.2402 45.7706 13.3307 45.8353 13.4349C45.9 13.5392 45.9431 13.6553 45.9621 13.7764C45.9811 13.8975 45.9756 14.0211 45.946 14.14L45.0936 17.7195C45.042 17.9324 44.9167 18.1204 44.7397 18.2506C44.5626 18.3807 44.3451 18.4447 44.1254 18.4312ZM49.4608 20.3989C49.2988 20.402 49.1389 20.3627 48.9969 20.2851C48.8549 20.2074 48.7359 20.0941 48.6518 19.9564C48.5676 19.8186 48.5213 19.6614 48.5174 19.5003C48.5135 19.3392 48.5521 19.1799 48.6295 19.0383L50.3448 15.7728C50.397 15.6561 50.4727 15.5514 50.5672 15.4651C50.6617 15.3787 50.7731 15.3127 50.8944 15.2709C51.0157 15.2292 51.1444 15.2127 51.2723 15.2225C51.4003 15.2322 51.5249 15.2681 51.6384 15.3277C51.7518 15.3874 51.8518 15.4696 51.9319 15.5693C52.0121 15.669 52.0709 15.784 52.1045 15.9072C52.1381 16.0304 52.1459 16.1591 52.1274 16.2854C52.109 16.4118 52.0646 16.5329 51.997 16.6415L50.2501 19.8861C50.1768 20.034 50.0648 20.1596 49.926 20.2499C49.7872 20.3401 49.6265 20.3915 49.4608 20.3989ZM53.8386 23.4132C53.6102 23.4153 53.3891 23.3333 53.2177 23.183C53.0325 23.0181 52.9199 22.7874 52.9041 22.5407C52.8884 22.294 52.9708 22.051 53.1336 21.8642L55.5645 19.1011C55.7288 18.9154 55.96 18.8014 56.2081 18.7838C56.4562 18.7661 56.7013 18.8463 56.8905 19.0069C56.9834 19.0878 57.0593 19.1861 57.1139 19.2963C57.1684 19.4065 57.2005 19.5263 57.2084 19.6489C57.2162 19.7714 57.1996 19.8943 57.1595 20.0105C57.1194 20.1266 57.0565 20.2337 56.9746 20.3256L54.5437 23.0888C54.4573 23.191 54.3493 23.273 54.2275 23.3291C54.1056 23.3851 53.9729 23.4139 53.8386 23.4132ZM57.3009 27.2125C57.1513 27.2121 57.0039 27.1769 56.8705 27.1096C56.7371 27.0424 56.6214 26.945 56.5327 26.8252C56.388 26.6252 56.329 26.3763 56.3684 26.1331C56.4079 25.8899 56.5426 25.6721 56.7431 25.5274L59.7423 23.3714C59.8394 23.2757 59.9564 23.2022 60.0851 23.1563C60.2138 23.1104 60.351 23.093 60.4871 23.1054C60.6233 23.1178 60.755 23.1597 60.8732 23.2282C60.9913 23.2967 61.0929 23.39 61.1709 23.5017C61.2489 23.6134 61.3013 23.7407 61.3245 23.8747C61.3478 24.0087 61.3413 24.1461 61.3054 24.2773C61.2696 24.4085 61.2053 24.5303 61.117 24.6342C61.0288 24.738 60.9188 24.8214 60.7947 24.8785L57.8797 27.0032C57.7148 27.1338 57.5116 27.2072 57.3009 27.2125ZM19.9949 3.30737C19.7465 3.30737 19.5083 3.20923 19.3326 3.03453C19.157 2.85984 19.0583 2.62291 19.0583 2.37586V0.931505C19.0583 0.684455 19.157 0.447523 19.3326 0.272831C19.5083 0.0981404 19.7465 0 19.9949 0C20.2433 0 20.4815 0.0981404 20.6572 0.272831C20.8328 0.447523 20.9315 0.684455 20.9315 0.931505V2.37586C20.9315 2.62291 20.8328 2.85984 20.6572 3.03453C20.4815 3.20923 20.2433 3.30737 19.9949 3.30737ZM15.8486 4.3226C15.6773 4.32147 15.5095 4.27414 15.3631 4.18568C15.2167 4.09721 15.0972 3.9709 15.0173 3.82022L14.3438 2.54332C14.2853 2.43567 14.2489 2.31751 14.2369 2.19574C14.2248 2.07397 14.2373 1.95103 14.2735 1.83411C14.3098 1.71718 14.3691 1.60861 14.448 1.51473C14.5269 1.42086 14.6238 1.34356 14.7331 1.28736C14.9523 1.17275 15.2083 1.14914 15.4449 1.22172C15.6816 1.29429 15.8797 1.45713 15.996 1.67462L16.6695 2.95151C16.7782 3.16742 16.7983 3.41687 16.7257 3.64727C16.653 3.87767 16.4933 4.07101 16.2801 4.18654C16.15 4.26709 16.0016 4.31388 15.8486 4.3226ZM12.7547 6.98105C12.5581 6.97966 12.3669 6.91747 12.2075 6.80313L11.0288 5.95535C10.9048 5.89828 10.7947 5.81489 10.7065 5.71103C10.6183 5.60716 10.554 5.48535 10.5181 5.35414C10.4823 5.22293 10.4757 5.08551 10.499 4.95152C10.5222 4.81753 10.5747 4.69022 10.6527 4.57854C10.7306 4.46686 10.8323 4.37351 10.9504 4.30505C11.0685 4.23659 11.2002 4.19468 11.3364 4.18226C11.4725 4.16984 11.6097 4.18721 11.7384 4.23315C11.8671 4.27909 11.9841 4.35249 12.0812 4.4482L13.2598 5.29597C13.3603 5.36671 13.4455 5.45664 13.5106 5.56052C13.5757 5.66439 13.6193 5.78013 13.6389 5.90096C13.6585 6.02179 13.6537 6.1453 13.6247 6.26426C13.5958 6.38322 13.5433 6.49525 13.4703 6.5938C13.388 6.70778 13.281 6.80181 13.1571 6.86886C13.0331 6.93592 12.8956 6.97427 12.7547 6.98105Z" fill="#696A6E"/>
</g>
<defs>
<clipPath id="clip0_960_811">
<rect width="80" height="79" fill="white"/>
</clipPath>
</defs>
</svg>
