<svg width="69" height="80" viewBox="0 0 69 80" fill="none" xmlns="http://www.w3.org/2000/svg">
<g clip-path="url(#clip0_960_782)">
<path d="M32.6738 20.0247V55.1172H12.269V20.0247H32.6738ZM37.0478 15.6381H7.89502V59.5038H37.0478V15.6381ZM63.4887 39.2159V69.5819H44.4399V39.2159H63.4887ZM67.8627 34.8293H40.0659V73.9685H67.8627V34.8293Z" fill="#ABB1B4"/>
<path d="M17.9336 27.5806H53.1225V75.5477H17.9336V27.5806Z" fill="white"/>
<path d="M53.1226 76.5346H17.9337C17.6756 76.5346 17.428 76.4318 17.2455 76.2488C17.063 76.0657 16.9604 75.8175 16.9604 75.5586V27.5806C16.9604 27.3217 17.063 27.0735 17.2455 26.8904C17.428 26.7074 17.6756 26.6046 17.9337 26.6046H53.1226C53.3807 26.6046 53.6282 26.7074 53.8107 26.8904C53.9933 27.0735 54.0958 27.3217 54.0958 27.5806V75.5586C54.0958 75.8175 53.9933 76.0657 53.8107 76.2488C53.6282 76.4318 53.3807 76.5346 53.1226 76.5346ZM18.9069 74.5717H52.1494V28.5127H18.9069V74.5717Z" fill="#696A6E"/>
<path d="M22.4717 31.0459H57.6606V79.013H22.4717V31.0459Z" fill="white"/>
<path d="M57.6602 80.0548H22.4713C22.2132 80.0548 21.9656 79.952 21.7831 79.7689C21.6006 79.5859 21.498 79.3377 21.498 79.0788V31.0459C21.498 30.787 21.6006 30.5388 21.7831 30.3558C21.9656 30.1727 22.2132 30.0699 22.4713 30.0699H57.6602C57.9183 30.0699 58.1658 30.1727 58.3483 30.3558C58.5309 30.5388 58.6334 30.787 58.6334 31.0459V79.024C58.6408 79.1567 58.6212 79.2895 58.5756 79.4143C58.53 79.5391 58.4595 79.6533 58.3684 79.7498C58.2773 79.8464 58.1675 79.9232 58.0457 79.9756C57.9239 80.0281 57.7927 80.055 57.6602 80.0548ZM23.4445 78.048H56.687V31.989H23.4445V78.048Z" fill="#696A6E"/>
<path d="M33.7891 27.5806H46.2003V34.632H33.7891V27.5806Z" fill="#F04461"/>
<path d="M46.2004 35.608H33.7891C33.531 35.608 33.2835 35.5051 33.101 35.3221C32.9185 35.1391 32.8159 34.8908 32.8159 34.632V27.5806C32.8159 27.3217 32.9185 27.0735 33.101 26.8904C33.2835 26.7074 33.531 26.6046 33.7891 26.6046H46.2004C46.3277 26.6045 46.4537 26.6299 46.5712 26.679C46.6886 26.7282 46.7952 26.8003 46.8847 26.8911C46.9742 26.9819 47.0449 27.0895 47.0926 27.2079C47.1403 27.3262 47.1641 27.4529 47.1627 27.5806V34.632C47.1641 34.7596 47.1403 34.8863 47.0926 35.0046C47.0449 35.123 46.9742 35.2307 46.8847 35.3215C46.7952 35.4122 46.6886 35.4843 46.5712 35.5335C46.4537 35.5827 46.3277 35.608 46.2004 35.608ZM34.7624 33.656H45.2272V28.5127H34.7624V33.656Z" fill="#696A6E"/>
<path d="M43.379 28.5127C43.1209 28.5127 42.8733 28.4099 42.6908 28.2268C42.5083 28.0438 42.4058 27.7955 42.4058 27.5367C42.4058 26.9143 42.1592 26.3174 41.7204 25.8772C41.2815 25.4371 40.6863 25.1899 40.0657 25.1899C39.4451 25.1899 38.8498 25.4371 38.411 25.8772C37.9721 26.3174 37.7256 26.9143 37.7256 27.5367C37.7256 27.7955 37.6231 28.0438 37.4405 28.2268C37.258 28.4099 37.0105 28.5127 36.7524 28.5127C36.4943 28.5127 36.2467 28.4099 36.0642 28.2268C35.8817 28.0438 35.7792 27.7955 35.7792 27.5367C35.7792 26.3966 36.2308 25.3031 37.0347 24.497C37.8385 23.6908 38.9288 23.2379 40.0657 23.2379C41.2025 23.2379 42.2928 23.6908 43.0967 24.497C43.9006 25.3031 44.3522 26.3966 44.3522 27.5367C44.3522 27.7955 44.2497 28.0438 44.0672 28.2268C43.8847 28.4099 43.6371 28.5127 43.379 28.5127ZM53.9641 44.9623H36.5665C36.3084 44.9623 36.0608 44.8595 35.8783 44.6765C35.6958 44.4934 35.5933 44.2452 35.5933 43.9863C35.5933 43.7275 35.6958 43.4792 35.8783 43.2962C36.0608 43.1131 36.3084 43.0103 36.5665 43.0103H53.9641C54.2222 43.0103 54.4698 43.1131 54.6523 43.2962C54.8348 43.4792 54.9373 43.7275 54.9373 43.9863C54.9373 44.2452 54.8348 44.4934 54.6523 44.6765C54.4698 44.8595 54.2222 44.9623 53.9641 44.9623Z" fill="#696A6E"/>
<path d="M26.5283 39.5997H33.647V46.7389H26.5283V39.5997Z" fill="#F04461" fill-opacity="0.6"/>
<path d="M29.6341 47.2872C29.5011 47.2869 29.3695 47.2595 29.2474 47.2067C29.1252 47.1539 29.015 47.0768 28.9233 46.9802L26.2442 44.096C26.1267 44.0132 26.0289 43.9053 25.9579 43.7801C25.8869 43.6549 25.8444 43.5155 25.8334 43.3718C25.8224 43.2282 25.8433 43.0839 25.8946 42.9493C25.9458 42.8148 26.0261 42.6932 26.1297 42.5934C26.2333 42.4937 26.3576 42.4181 26.4938 42.3722C26.6299 42.3264 26.7745 42.3113 26.9172 42.328C27.0599 42.3448 27.197 42.3931 27.3189 42.4693C27.4408 42.5456 27.5443 42.6479 27.6221 42.769L29.4373 44.6991L32.8053 38.7115C32.9329 38.4861 33.1445 38.3207 33.3937 38.2518C33.6429 38.1829 33.9091 38.2161 34.1339 38.3441C34.3586 38.4721 34.5235 38.6843 34.5922 38.9342C34.6609 39.1841 34.6278 39.4511 34.5002 39.6765L30.487 46.7937C30.411 46.9269 30.3053 47.0408 30.1783 47.1264C30.0512 47.212 29.9061 47.267 29.7544 47.2872H29.6341ZM53.9645 56.1919H36.5669C36.3088 56.1919 36.0613 56.0891 35.8787 55.9061C35.6962 55.723 35.5937 55.4748 35.5937 55.2159C35.5937 54.9571 35.6962 54.7088 35.8787 54.5258C36.0613 54.3427 36.3088 54.2399 36.5669 54.2399H53.9645C54.2226 54.2399 54.4702 54.3427 54.6527 54.5258C54.8352 54.7088 54.9378 54.9571 54.9378 55.2159C54.9378 55.4748 54.8352 55.723 54.6527 55.9061C54.4702 56.0891 54.2226 56.1919 53.9645 56.1919Z" fill="#696A6E"/>
<path d="M26.5283 50.8293H33.647V57.9685H26.5283V50.8293Z" fill="#F04461" fill-opacity="0.6"/>
<path d="M29.6337 58.5168C29.5007 58.5164 29.3691 58.489 29.2469 58.4363C29.1248 58.3835 29.0146 58.3064 28.9229 58.2097L26.2438 55.3256C26.0655 55.138 25.9687 54.887 25.9749 54.6279C25.981 54.3687 26.0896 54.1227 26.2766 53.9438C26.4637 53.7649 26.714 53.6679 26.9723 53.6741C27.2307 53.6802 27.4761 53.7891 27.6545 53.9767L29.4369 55.9287L32.8049 49.9411C32.9313 49.7159 33.1415 49.5503 33.3896 49.4804C33.6376 49.4105 33.9031 49.4421 34.128 49.5682C34.3532 49.6971 34.5186 49.9099 34.5883 50.1605C34.6579 50.411 34.6261 50.679 34.4998 50.9061L30.4866 58.0233C30.41 58.155 30.3039 58.2672 30.1768 58.3509C30.0497 58.4346 29.905 58.4876 29.754 58.5058L29.6337 58.5168ZM53.9641 67.4215H36.5665C36.3084 67.4215 36.0608 67.3187 35.8783 67.1357C35.6958 66.9526 35.5933 66.7044 35.5933 66.4455C35.5933 66.1867 35.6958 65.9384 35.8783 65.7554C36.0608 65.5723 36.3084 65.4695 36.5665 65.4695H53.9641C54.2222 65.4695 54.4698 65.5723 54.6523 65.7554C54.8348 65.9384 54.9373 66.1867 54.9373 66.4455C54.9373 66.7044 54.8348 66.9526 54.6523 67.1357C54.4698 67.3187 54.2222 67.4215 53.9641 67.4215Z" fill="#696A6E"/>
<path d="M26.5283 62.048H33.647V69.1871H26.5283V62.048Z" fill="#F04461" fill-opacity="0.6"/>
<path d="M29.6338 69.7355C29.5008 69.7351 29.3693 69.7077 29.2471 69.6549C29.1249 69.6022 29.0147 69.5251 28.9231 69.4284L26.244 66.5442C26.1455 66.4536 26.0667 66.3437 26.0125 66.2212C25.9583 66.0988 25.9298 65.9664 25.9287 65.8324C25.9277 65.6984 25.9542 65.5657 26.0066 65.4424C26.059 65.3191 26.1361 65.208 26.2332 65.1159C26.3303 65.0239 26.4452 64.9528 26.5709 64.9072C26.6965 64.8617 26.8302 64.8425 26.9635 64.851C27.0969 64.8595 27.227 64.8954 27.3459 64.9565C27.4648 65.0177 27.5699 65.1027 27.6546 65.2063L29.4698 67.1254L32.805 61.1597C32.8682 61.0481 32.9527 60.9501 33.0536 60.8712C33.1546 60.7923 33.2701 60.7342 33.3934 60.7001C33.5168 60.666 33.6457 60.6565 33.7727 60.6724C33.8997 60.6882 34.0223 60.729 34.1336 60.7923C34.2449 60.8557 34.3427 60.9404 34.4213 61.0417C34.4999 61.1429 34.5579 61.2587 34.5919 61.3825C34.626 61.5062 34.6353 61.6354 34.6195 61.7628C34.6038 61.8902 34.5631 62.0132 34.4999 62.1248L30.4868 69.242C30.4107 69.3752 30.3051 69.489 30.178 69.5746C30.0509 69.6602 29.9059 69.7153 29.7541 69.7355H29.6338Z" fill="#696A6E"/>
<path d="M7.53418 44.9294L11.766 50.95L12.8705 43.6793" fill="white"/>
<path d="M11.7661 51.926C11.6067 51.9362 11.4472 51.9064 11.3022 51.8394C11.1571 51.7724 11.0309 51.6703 10.935 51.5421L6.73597 45.4996C6.59076 45.2865 6.53462 45.0247 6.57959 44.7705C6.62456 44.5163 6.76706 44.2899 6.97654 44.1398C7.08017 44.0643 7.19779 44.0103 7.3225 43.981C7.44721 43.9517 7.5765 43.9476 7.70279 43.9691C7.82908 43.9905 7.94983 44.037 8.05796 44.1059C8.16609 44.1748 8.25942 44.2646 8.33248 44.3701L11.1647 48.4057L11.9082 43.5257C11.9474 43.2697 12.0863 43.0399 12.2945 42.8867C12.5026 42.7334 12.7629 42.6694 13.0181 42.7087C13.2734 42.7479 13.5026 42.8873 13.6553 43.096C13.8081 43.3048 13.872 43.5658 13.8328 43.8218L12.7393 51.1035C12.7093 51.2961 12.6224 51.4754 12.4899 51.6181C12.3573 51.7607 12.1852 51.8603 11.9957 51.904C11.9209 51.9238 11.8433 51.9312 11.7661 51.926Z" fill="#696A6E"/>
<path d="M2.01221 21.4756L7.34412 20.2144L12.8641 43.6858L7.53221 44.947L2.01221 21.4756Z" fill="white"/>
<path d="M7.53408 45.9164C7.30925 45.9242 7.08878 45.8528 6.91098 45.7146C6.73318 45.5763 6.6093 45.38 6.56087 45.1597L1.09336 21.6915C1.03422 21.44 1.07699 21.1752 1.21229 20.9552C1.34759 20.7352 1.56436 20.578 1.81507 20.5181L7.14042 19.257C7.39127 19.1977 7.65532 19.2406 7.87467 19.3763C8.09402 19.512 8.25075 19.7294 8.31047 19.9808L13.8327 43.4489C13.8654 43.573 13.8716 43.7026 13.8509 43.8292C13.8301 43.9558 13.7829 44.0766 13.7124 44.1837C13.6471 44.2939 13.5601 44.3897 13.4567 44.4651C13.3533 44.5406 13.2357 44.5941 13.1109 44.6223L7.76372 45.8835L7.53408 45.9164ZM3.16008 22.196L8.2558 43.756L11.7003 42.9445L6.62648 21.3845L3.16008 22.196Z" fill="#696A6E"/>
<path d="M0.967773 17.0352L6.29969 15.7741L7.34399 20.2144L2.01207 21.4755L0.967773 17.0352Z" fill="#F04461"/>
<path d="M2.01182 22.4373C1.79782 22.4331 1.59131 22.3575 1.42495 22.2225C1.25859 22.0874 1.14188 21.9006 1.09328 21.6915L-0.000227051 17.2501C-0.0550116 16.9988 -0.0119834 16.736 0.120058 16.5154C0.259053 16.2944 0.478913 16.1369 0.73242 16.0767L6.05778 14.8156C6.30862 14.7563 6.57268 14.7992 6.79203 14.9349C7.01137 15.0706 7.1681 15.288 7.22782 15.5394L8.32133 19.9259C8.35302 20.0495 8.35967 20.1782 8.34089 20.3044C8.32211 20.4306 8.27827 20.5518 8.21198 20.6607C8.07298 20.8817 7.85312 21.0392 7.59961 21.0994L2.24145 22.4153C2.16632 22.4334 2.08901 22.4408 2.01182 22.4373ZM2.18678 17.7546L2.7882 20.2878L6.2218 19.4763L5.57664 16.9431L2.18678 17.7546ZM10.2678 49.8094C10.0263 49.8129 9.79214 49.7262 9.61084 49.5662C9.42954 49.4062 9.31403 49.1844 9.28676 48.9437C9.25949 48.7031 9.32241 48.4609 9.4633 48.2641C9.60418 48.0674 9.81296 47.9303 10.0491 47.8793L11.908 47.4407C12.0339 47.4083 12.165 47.4014 12.2937 47.4204C12.4223 47.4395 12.5458 47.484 12.657 47.5515C12.7682 47.619 12.8649 47.7081 12.9414 47.8135C13.0179 47.9189 13.0727 48.0386 13.1025 48.1655C13.1323 48.2924 13.1366 48.424 13.1151 48.5525C13.0936 48.6811 13.0467 48.8041 12.9772 48.9143C12.9077 49.0245 12.817 49.1197 12.7104 49.1943C12.6038 49.2689 12.4835 49.3214 12.3564 49.3488L10.4974 49.7875L10.2678 49.8094Z" fill="#696A6E"/>
<path d="M17.3099 18.7526L15.8228 24.3345L20.7435 21.3406" fill="white"/>
<path d="M15.823 25.1021C15.7054 25.1027 15.5892 25.0761 15.4835 25.0244C15.3778 24.9726 15.2854 24.8972 15.2135 24.8038C15.1415 24.7105 15.092 24.6018 15.0688 24.4861C15.0456 24.3705 15.0492 24.2511 15.0795 24.1371L16.5776 18.5551C16.6395 18.3702 16.7694 18.2158 16.9409 18.1234C17.1123 18.031 17.3123 18.0076 17.5004 18.0579C17.6884 18.1082 17.8503 18.2284 17.9531 18.3941C18.0559 18.5598 18.0919 18.7586 18.0538 18.9499L17.0478 22.6895L20.3283 20.6826C20.502 20.5848 20.7068 20.5587 20.8994 20.6099C21.092 20.6611 21.257 20.7856 21.3595 20.9569C21.462 21.1283 21.4939 21.3329 21.4483 21.5274C21.4028 21.7219 21.2834 21.891 21.1156 21.9986L16.1948 24.9924C16.0809 25.0571 15.9537 25.0946 15.823 25.1021Z" fill="#696A6E"/>
<path d="M28.6408 3.62769L32.0777 6.21576L20.7523 21.3439L17.3154 18.7559L28.6408 3.62769Z" fill="white"/>
<path d="M20.7767 22.1083C20.6112 22.1075 20.4503 22.0538 20.3174 21.9548L16.8838 19.3667C16.8002 19.3061 16.7297 19.2292 16.6766 19.1406C16.6234 19.052 16.5886 18.9535 16.5743 18.8511C16.56 18.7487 16.5665 18.6444 16.5934 18.5446C16.6202 18.4447 16.667 18.3514 16.7307 18.2701L28.0266 3.16932C28.087 3.08552 28.1637 3.01482 28.2521 2.96148C28.3404 2.90814 28.4386 2.87325 28.5407 2.85892C28.6429 2.84458 28.7468 2.85108 28.8464 2.87804C28.9459 2.905 29.039 2.95185 29.1201 3.01579L32.5537 5.60387C32.712 5.72865 32.8175 5.90884 32.8489 6.10832C32.8743 6.30954 32.8236 6.51298 32.7068 6.67857L21.3562 21.8013C21.2971 21.8825 21.2219 21.9507 21.1354 22.0017C21.0488 22.0526 20.9528 22.0852 20.8532 22.0974L20.7767 22.1083ZM18.3819 18.6429L20.5689 20.3098L31.0009 6.37151L28.8139 4.70462L18.3819 18.6429Z" fill="#696A6E"/>
<path d="M30.7787 0.770935L34.2155 3.35901L32.0755 6.21795L28.6387 3.62988L30.7787 0.770935Z" fill="#F04461" fill-opacity="0.98"/>
<path d="M32.0725 6.97461C31.9081 6.97779 31.747 6.9278 31.6132 6.83205L28.1796 4.24398C28.0163 4.12187 27.9066 3.94106 27.8734 3.73952C27.8512 3.5369 27.9059 3.33332 28.0265 3.16927L30.2135 0.307033C30.2729 0.221939 30.3492 0.150025 30.4375 0.0957718C30.5258 0.041518 30.6244 0.00608621 30.727 -0.00831673C30.8295 -0.0227197 30.934 -0.0157852 31.0338 0.0120548C31.1336 0.0398947 31.2266 0.0880438 31.307 0.153503L34.675 2.74158C34.7614 2.80739 34.8339 2.88975 34.8883 2.98387C34.9428 3.07799 34.9781 3.18201 34.9921 3.2899C35.0175 3.49112 34.9667 3.69456 34.85 3.86015L32.663 6.72239C32.5882 6.80421 32.4968 6.86905 32.3949 6.91256C32.2931 6.95606 32.1831 6.97722 32.0725 6.97461ZM29.6996 3.47633L31.8866 5.14322L33.1441 3.50923L30.9571 1.84233L29.6996 3.47633ZM17.5508 24.0384C17.3853 24.0376 17.2243 23.9838 17.0915 23.8848L15.8886 23.0294C15.8038 22.9699 15.7321 22.8934 15.678 22.8048C15.6239 22.7162 15.5885 22.6174 15.5742 22.5145C15.5598 22.4116 15.5667 22.3069 15.5945 22.2068C15.6223 22.1067 15.6703 22.0135 15.7355 21.9328C15.796 21.849 15.8727 21.7783 15.961 21.725C16.0494 21.6716 16.1475 21.6367 16.2497 21.6224C16.3518 21.6081 16.4558 21.6146 16.5553 21.6415C16.6549 21.6685 16.748 21.7153 16.829 21.7793L18.0319 22.6785C18.1146 22.74 18.1842 22.8175 18.2363 22.9065C18.2885 22.9955 18.3222 23.0941 18.3355 23.1965C18.3488 23.2989 18.3413 23.4029 18.3136 23.5023C18.2858 23.6018 18.2384 23.6946 18.174 23.7752C18.0983 23.8653 18.0023 23.9362 17.894 23.9819C17.7856 24.0277 17.668 24.047 17.5508 24.0384Z" fill="#696A6E"/>
<path d="M55.4075 14.8814C55.2743 14.8824 55.1423 14.8556 55.02 14.8027C54.8976 14.7498 54.7876 14.6721 54.6967 14.5744L51.1101 10.758C51.0198 10.6683 50.9482 10.5616 50.8993 10.4439C50.8504 10.3263 50.8252 10.2001 50.8252 10.0726C50.8252 9.94519 50.8504 9.819 50.8993 9.70136C50.9482 9.58372 51.0198 9.47696 51.1101 9.38724C51.2005 9.29639 51.3078 9.22431 51.426 9.17513C51.5443 9.12595 51.671 9.10063 51.799 9.10063C51.9269 9.10063 52.0537 9.12595 52.1719 9.17513C52.2901 9.22431 52.3975 9.29639 52.4879 9.38724L55.167 12.2385L59.8143 4.00273C59.8791 3.88021 59.9691 3.77293 60.0785 3.68804C60.1878 3.60316 60.314 3.54261 60.4485 3.51045C60.583 3.47828 60.7228 3.47523 60.8586 3.50149C60.9943 3.52776 61.123 3.58274 61.2359 3.66277C61.3472 3.72541 61.445 3.80963 61.5235 3.91052C61.6021 4.01141 61.6598 4.12697 61.6934 4.25046C61.727 4.37395 61.7357 4.50291 61.7191 4.62982C61.7025 4.75674 61.6609 4.87907 61.5967 4.98971L56.3042 14.3879C56.2276 14.5197 56.1215 14.6318 55.9944 14.7155C55.8673 14.7992 55.7225 14.8523 55.5715 14.8705L55.4075 14.8814ZM64.5164 24.1261C64.3832 24.1271 64.2512 24.1002 64.1289 24.0474C64.0065 23.9945 63.8964 23.9168 63.8056 23.819L61.4437 21.3077C61.2653 21.1201 61.1686 20.8692 61.1747 20.61C61.1809 20.3509 61.2894 20.1048 61.4765 19.926C61.6635 19.7471 61.9138 19.6501 62.1722 19.6562C62.4305 19.6624 62.6759 19.7713 62.8543 19.9589L64.3196 21.5161L67.1627 16.4715C67.2251 16.3599 67.3091 16.2619 67.4097 16.1831C67.5103 16.1043 67.6255 16.0464 67.7487 16.0127C67.8718 15.9791 68.0004 15.9703 68.127 15.9869C68.2535 16.0036 68.3755 16.0453 68.4858 16.1097C68.6012 16.1696 68.7034 16.2521 68.7865 16.3523C68.8696 16.4525 68.9318 16.5683 68.9695 16.693C69.0072 16.8177 69.0196 16.9487 69.006 17.0783C68.9925 17.2079 68.9531 17.3335 68.8904 17.4476L65.3912 23.6326C65.3179 23.7681 65.213 23.8838 65.0854 23.9697C64.9578 24.0557 64.8113 24.1093 64.6586 24.1261H64.5164Z" fill="#D3DADE"/>
</g>
<defs>
<clipPath id="clip0_960_782">
<rect width="69" height="80" fill="white"/>
</clipPath>
</defs>
</svg>
