<?xml version="1.0" encoding="utf-8"?><svg xmlns="http://www.w3.org/2000/svg" xmlns:xlink="http://www.w3.org/1999/xlink"><symbol fill="none" viewBox="0 0 36 36" id="logo-light" xmlns="http://www.w3.org/2000/svg"><path d="M4.572 18.673S.36 19.645.36 23.213c0 3.56 4.212 4.471 4.212 4.471l21.078-4.442-21.078-4.568z" fill="#f04461"/><path d="m18.051 19.469 2.772-8.816c.263-.821.432-1.674.508-2.56h.166c.09 1.091.238 1.969.454 2.635l6.937 22.392h6.754L25.211 2.88h-7.272l-5.537 15.754 5.648.835zm-9.083 8.939L7.305 33.12h6.714l1.865-5.591c-1.508.072-4.464.508-6.916.878z" fill="#fff"/></symbol><symbol fill="none" viewBox="0 0 69 80" id="why-01" xmlns="http://www.w3.org/2000/svg"><g clip-path="url(#ba)"><path d="M32.674 20.025v35.092H12.269V20.025h20.405Zm4.374-4.387H7.895v43.866h29.153V15.638Zm26.44 23.578v30.366H44.44V39.216h19.049Zm4.375-4.387H40.066v39.14h27.797v-39.14Z" fill="#ABB1B4"/><path d="M17.934 27.58h35.189v47.968h-35.19V27.58Z" fill="#fff"/><path d="M53.123 76.535h-35.19a.972.972 0 0 1-.973-.976V27.58a.978.978 0 0 1 .974-.976h35.189a.972.972 0 0 1 .973.976v47.978a.977.977 0 0 1-.973.976Zm-34.216-1.963h33.242v-46.06H18.907v46.06Z" fill="#696A6E"/><path d="M22.472 31.046H57.66v47.967H22.47V31.046Z" fill="#fff"/><path d="M57.66 80.055H22.471a.972.972 0 0 1-.973-.976V31.046a.977.977 0 0 1 .973-.976h35.19a.971.971 0 0 1 .972.976v47.978a.978.978 0 0 1-.973 1.03Zm-34.215-2.007h33.242V31.989H23.445v46.059Z" fill="#696A6E"/><path d="M33.79 27.58H46.2v7.052H33.79v-7.051Z" fill="#F04461"/><path d="M46.2 35.608H33.79a.972.972 0 0 1-.974-.976v-7.051a.978.978 0 0 1 .973-.976H46.2a.96.96 0 0 1 .963.976v7.051a.968.968 0 0 1-.592.901.96.96 0 0 1-.37.075Zm-11.438-1.952h10.465v-5.143H34.762v5.143Z" fill="#696A6E"/><path d="M43.379 28.513a.972.972 0 0 1-.973-.976 2.35 2.35 0 0 0-.686-1.66 2.337 2.337 0 0 0-3.309 0 2.35 2.35 0 0 0-.685 1.66.977.977 0 0 1-.974.976.972.972 0 0 1-.973-.976c0-1.14.452-2.234 1.256-3.04a4.28 4.28 0 0 1 6.062 0 4.305 4.305 0 0 1 1.255 3.04.977.977 0 0 1-.973.976Zm10.585 16.45H36.566a.972.972 0 0 1-.973-.977.977.977 0 0 1 .973-.976h17.398a.972.972 0 0 1 .973.976.978.978 0 0 1-.973.976Z" fill="#696A6E"/><path d="M26.528 39.6h7.119v7.139h-7.119v-7.14Z" fill="#F04461" fill-opacity=".6"/><path d="M29.634 47.287a.98.98 0 0 1-.71-.307l-2.68-2.884a.975.975 0 0 1-.35-1.147.977.977 0 0 1 1.023-.621.972.972 0 0 1 .705.441l1.815 1.93 3.368-5.987a.975.975 0 1 1 1.695.964l-4.013 7.118a.997.997 0 0 1-.733.493h-.12Zm24.33 8.905H36.568a.972.972 0 0 1-.973-.976.977.977 0 0 1 .973-.976h17.398a.972.972 0 0 1 .973.976.978.978 0 0 1-.974.976Z" fill="#696A6E"/><path d="M26.528 50.83h7.119v7.139h-7.119v-7.14Z" fill="#F04461" fill-opacity=".6"/><path d="M29.634 58.517a.984.984 0 0 1-.711-.307l-2.68-2.884a.979.979 0 0 1 .73-1.652.973.973 0 0 1 .681.303l1.783 1.952 3.368-5.988a.973.973 0 0 1 1.323-.373.987.987 0 0 1 .372 1.338l-4.013 7.117a.986.986 0 0 1-.733.483l-.12.01Zm24.33 8.904H36.566a.972.972 0 0 1-.973-.976.977.977 0 0 1 .973-.975h17.398a.972.972 0 0 1 .973.975.978.978 0 0 1-.973.977Z" fill="#696A6E"/><path d="M26.528 62.048h7.119v7.14h-7.119v-7.14Z" fill="#F04461" fill-opacity=".6"/><path d="M29.634 69.736a.982.982 0 0 1-.71-.308l-2.68-2.884a.975.975 0 0 1-.237-1.102.976.976 0 0 1 .956-.591.972.972 0 0 1 .692.355l1.815 1.92 3.335-5.966a.978.978 0 0 1 .968-.488.973.973 0 0 1 .846 1.09.977.977 0 0 1-.12.363l-4.012 7.117a.997.997 0 0 1-.733.493h-.12Z" fill="#696A6E"/><path d="m7.534 44.93 4.232 6.02 1.104-7.27" fill="#fff"/><path d="M11.766 51.926a.96.96 0 0 1-.831-.384L6.736 45.5a.99.99 0 0 1 .587-1.519.959.959 0 0 1 1.01.39l2.832 4.035.743-4.88a.977.977 0 0 1 1.11-.817.973.973 0 0 1 .815 1.113l-1.094 7.281a.978.978 0 0 1-.743.801.71.71 0 0 1-.23.022Z" fill="#696A6E"/><path d="m2.012 21.476 5.332-1.262 5.52 23.472-5.332 1.261-5.52-23.471Z" fill="#fff"/><path d="M7.534 45.916a.961.961 0 0 1-.973-.756L1.093 21.692a.978.978 0 0 1 .722-1.174l5.325-1.261a.97.97 0 0 1 1.17.724l5.523 23.468a.914.914 0 0 1-.12.735.944.944 0 0 1-.602.438l-5.347 1.261-.23.033ZM3.16 22.196l5.096 21.56 3.444-.812-5.074-21.56-3.466.812Z" fill="#696A6E"/><path d="m.968 17.035 5.332-1.26 1.044 4.44-5.332 1.26-1.044-4.44Z" fill="#F04461"/><path d="M2.012 22.437a.961.961 0 0 1-.919-.745L0 17.25a1.011 1.011 0 0 1 .12-.735.995.995 0 0 1 .612-.438l5.326-1.261a.97.97 0 0 1 1.17.723l1.093 4.387a.957.957 0 0 1-.109.735.995.995 0 0 1-.612.438L2.24 22.415a.822.822 0 0 1-.23.022Zm.175-4.682.601 2.533 3.434-.812-.645-2.533-3.39.812Zm8.08 32.054a.972.972 0 0 1-.98-.865.978.978 0 0 1 .762-1.065l1.859-.438a.976.976 0 0 1 1.194.724.983.983 0 0 1-.746 1.184l-1.859.439-.23.021Z" fill="#696A6E"/><path d="m17.31 18.753-1.487 5.581 4.92-2.993" fill="#fff"/><path d="M15.823 25.102a.764.764 0 0 1-.754-.616.77.77 0 0 1 .01-.349l1.499-5.582a.767.767 0 0 1 .922-.497.766.766 0 0 1 .554.892l-1.006 3.74 3.28-2.007a.764.764 0 0 1 1.032.274.77.77 0 0 1-.244 1.042l-4.921 2.993a.851.851 0 0 1-.372.11Z" fill="#696A6E"/><path d="m28.64 3.628 3.438 2.588-11.326 15.128-3.437-2.588L28.641 3.628Z" fill="#fff"/><path d="M20.777 22.108a.775.775 0 0 1-.46-.153l-3.433-2.588a.765.765 0 0 1-.29-.822.768.768 0 0 1 .137-.275l11.296-15.1a.765.765 0 0 1 1.093-.154l3.434 2.588a.8.8 0 0 1 .295.504.813.813 0 0 1-.142.57l-11.35 15.123a.734.734 0 0 1-.504.296l-.076.011Zm-2.395-3.465 2.187 1.667L31 6.372l-2.187-1.667-10.432 13.938Z" fill="#696A6E"/><path d="m30.779.77 3.436 2.589-2.14 2.859L28.64 3.63l2.14-2.86Z" fill="#F04461" fill-opacity=".98"/><path d="M32.072 6.975a.764.764 0 0 1-.459-.143L28.18 4.244a.79.79 0 0 1-.307-.504.813.813 0 0 1 .153-.57L30.214.306a.756.756 0 0 1 1.093-.153l3.368 2.588a.821.821 0 0 1 .317.548.813.813 0 0 1-.142.57l-2.187 2.862a.776.776 0 0 1-.59.253ZM29.7 3.476l2.187 1.667 1.257-1.634-2.187-1.667L29.7 3.476ZM17.55 24.038a.775.775 0 0 1-.459-.153l-1.202-.856a.755.755 0 0 1-.153-1.096.767.767 0 0 1 1.093-.154l1.203.9a.767.767 0 0 1 .142 1.096.743.743 0 0 1-.623.263Z" fill="#696A6E"/><path d="M55.407 14.881a.958.958 0 0 1-.71-.307l-3.587-3.816a.964.964 0 0 1 0-1.37.973.973 0 0 1 1.378 0l2.679 2.85 4.647-8.235A.975.975 0 0 1 60.86 3.5a.972.972 0 0 1 .377.162.963.963 0 0 1 .483.967.967.967 0 0 1-.122.36l-5.293 9.398a.985.985 0 0 1-.733.482l-.163.011Zm9.11 9.245a.96.96 0 0 1-.711-.307l-2.362-2.511a.979.979 0 0 1 .728-1.652.974.974 0 0 1 .682.303l1.466 1.557 2.843-5.044a.964.964 0 0 1 1.323-.362.973.973 0 0 1 .52.968.977.977 0 0 1-.116.37l-3.499 6.185a.953.953 0 0 1-.732.493h-.143Z" fill="#D3DADE"/></g><defs><clipPath id="ba"><path fill="#fff" d="M0 0h69v80H0z"/></clipPath></defs></symbol><symbol fill="none" viewBox="0 0 80 79" id="why-02" xmlns="http://www.w3.org/2000/svg"><g clip-path="url(#ca)"><path d="M2.505 52.039a.95.95 0 0 1-.905-.66A38.523 38.523 0 0 1 .29 35.686a38.584 38.584 0 0 1 5.08-14.915A38.801 38.801 0 0 1 16 9.101a39.039 39.039 0 0 1 14.424-6.495.941.941 0 0 1 .998.37.93.93 0 0 1 .149.342.917.917 0 0 1-.705 1.11 37.14 37.14 0 0 0-13.741 6.17A36.913 36.913 0 0 0 6.994 21.701a36.707 36.707 0 0 0-4.843 14.2A36.65 36.65 0 0 0 3.4 50.846a.937.937 0 0 1-.631 1.161c-.086.021-.175.032-.263.032ZM38.864 79a39.108 39.108 0 0 1-18.028-4.415A38.871 38.871 0 0 1 6.914 62.369a.927.927 0 0 1 .273-1.256.94.94 0 0 1 1.274.21 36.913 36.913 0 0 0 10.485 10.045 37.12 37.12 0 0 0 13.569 5.245 37.2 37.2 0 0 0 14.553-.367 37.098 37.098 0 0 0 13.285-5.923.937.937 0 0 1 1.13-.143.934.934 0 0 1 .433 1.05.93.93 0 0 1-.51.6A38.67 38.67 0 0 1 38.863 79Zm28.34-12.654a.93.93 0 0 1-.935-.872.94.94 0 0 1 .23-.677 36.748 36.748 0 0 0 8.566-16.83.928.928 0 0 1 .737-.778.94.94 0 0 1 1.116.779.928.928 0 0 1-.022.376 38.523 38.523 0 0 1-8.998 17.699.935.935 0 0 1-.694.303Zm9.618-25.067a.94.94 0 0 1-.662-.273.93.93 0 0 1-.275-.658 36.747 36.747 0 0 0-5.864-19.887 37.037 37.037 0 0 0-15.72-13.606.94.94 0 0 1-.692-.474.927.927 0 0 1 .236-1.175.938.938 0 0 1 1.204.027 38.876 38.876 0 0 1 16.502 14.26 38.572 38.572 0 0 1 6.176 20.855.929.929 0 0 1-.263.648.939.939 0 0 1-.642.283ZM46.956 4.417a.687.687 0 0 1-.2 0 37.565 37.565 0 0 0-7.892-.837.94.94 0 0 1-.663-.273.93.93 0 0 1 .663-1.59 39.215 39.215 0 0 1 8.292.879.947.947 0 0 1 .586.41c.133.207.18.458.13.7a.93.93 0 0 1-.916.71Zm-27.73 62.442a.898.898 0 0 1-.567-.199A33.136 33.136 0 0 1 6.601 48.54 32.98 32.98 0 0 1 8.42 26.889a.932.932 0 0 1 .88-.563.941.941 0 0 1 .857.6.93.93 0 0 1-.022.717A31.137 31.137 0 0 0 8.41 48.075a31.283 31.283 0 0 0 11.365 17.11.932.932 0 0 1 .323 1.04.931.931 0 0 1-.891.634h.02Zm19.638 6.604a33.35 33.35 0 0 1-12.555-2.417.938.938 0 0 1-.317-1.52.928.928 0 0 1 1.022-.207 31.605 31.605 0 0 0 19.005 1.447 31.477 31.477 0 0 0 16.354-9.737.935.935 0 0 1 1.025-.299.937.937 0 0 1 .64.85.925.925 0 0 1-.265.684 33.295 33.295 0 0 1-11.246 8.258 33.46 33.46 0 0 1-13.663 2.941Zm27.435-15.05a.909.909 0 0 1-.506-.147.925.925 0 0 1-.417-.94.918.918 0 0 1 .133-.337 31.244 31.244 0 0 0 2.526-28.385.907.907 0 0 1 .516-1.203.93.93 0 0 1 1.22.513 33.066 33.066 0 0 1-2.725 30.07.955.955 0 0 1-.747.429Zm-.537-35.02a.962.962 0 0 1-.779-.409 31.241 31.241 0 0 0-3.63-4.448.93.93 0 0 1 .688-1.582.943.943 0 0 1 .659.284 33.002 33.002 0 0 1 3.84 4.741.927.927 0 0 1-.241 1.256.994.994 0 0 1-.537.157Zm-52.797-1.414a.94.94 0 0 1-.922-.804.938.938 0 0 1 .175-.692 33.346 33.346 0 0 1 21.1-12.784 33.464 33.464 0 0 1 24.151 5.185.952.952 0 0 1 .253 1.298.948.948 0 0 1-1.305.24 31.582 31.582 0 0 0-22.813-4.897 31.471 31.471 0 0 0-19.923 12.088.966.966 0 0 1-.716.366Zm10.829-2.93a.94.94 0 0 1-.901-.659.927.927 0 0 1 .375-1.047 27.869 27.869 0 0 1 15.596-4.783.94.94 0 0 1 .662.272.929.929 0 0 1-.662 1.59A26.02 26.02 0 0 0 24.31 18.84a.866.866 0 0 1-.516.209Zm-11.165 28.5a.929.929 0 0 1-.905-.712 27.647 27.647 0 0 1 5.956-24.554.934.934 0 0 1 1.006-.286.938.938 0 0 1 .644.82.927.927 0 0 1-.23.68 25.874 25.874 0 0 0-5.544 10.786 25.788 25.788 0 0 0-.012 12.114.938.938 0 0 1-.694 1.13l-.221.022Zm26.235 20.545a28.047 28.047 0 0 1-14.205-3.866 27.847 27.847 0 0 1-10.252-10.515.927.927 0 0 1 .4-1.212.941.941 0 0 1 1.242.323A26.046 26.046 0 0 0 29.547 64.51a26.222 26.222 0 0 0 17.893.286.94.94 0 0 1 1.24.559.927.927 0 0 1-.294 1.026.937.937 0 0 1-.335.173 27.888 27.888 0 0 1-9.187 1.54Zm15.333-4.752a.952.952 0 0 1-.78-.397.926.926 0 0 1 .253-1.298 26.314 26.314 0 0 0 7.84-8.51.935.935 0 0 1 1.632.922 28.045 28.045 0 0 1-8.42 9.116.898.898 0 0 1-.526.167ZM65.025 47.79h-.231a.927.927 0 0 1-.674-1.13c.51-2.055.768-4.163.768-6.28a25.829 25.829 0 0 0-4.78-14.971 26.052 26.052 0 0 0-12.594-9.478.927.927 0 0 1-.095-1.72.942.942 0 0 1 .716-.039 27.924 27.924 0 0 1 13.49 10.142 27.685 27.685 0 0 1 5.137 16.024 27.17 27.17 0 0 1-.832 6.762.92.92 0 0 1-.905.69Z" fill="#D3DADE"/><path d="M38.864 53.598h26.55v3.192h-26.55v-3.192Zm0-7.044h23.162v3.193H38.863v-3.193Zm0-7.033H80v3.192H38.864v-3.192Zm0-7.034h34.159v3.193h-34.16v-3.193Zm0-7.033h26.55v3.192h-26.55v-3.192ZM32.497 56.79h-15.28v-1.842h15.28v1.842Zm0-4.05H19.163v-1.842h13.334v1.842Zm.01-4.05H8.84v-1.843h23.667v1.843Zm-.01-4.051H12.839v-1.842h19.658v1.842Zm0-4.05h-15.28v-1.843h15.28v1.843Z" fill="#ABB1B4"/><path d="M54.722 36.768a15.632 15.632 0 0 0-1.933-7.487 15.734 15.734 0 0 0-5.292-5.662 15.86 15.86 0 0 0-15.023-1.132 15.771 15.771 0 0 0-6.09 4.804 15.62 15.62 0 0 0-2.31 14.807 15.696 15.696 0 0 0 4.34 6.413 9.664 9.664 0 0 1 2.43 3.254 9.617 9.617 0 0 1 .874 3.958v5.39h14.417v-5.39a9.597 9.597 0 0 1 .882-3.962 9.645 9.645 0 0 1 2.444-3.25 15.704 15.704 0 0 0 3.895-5.31 15.626 15.626 0 0 0 1.366-6.433Z" fill="#fff"/><path d="M46.135 62.044H31.718a.94.94 0 0 1-.662-.272.93.93 0 0 1-.275-.659v-5.39a8.71 8.71 0 0 0-.79-3.584 8.755 8.755 0 0 0-2.198-2.947 16.525 16.525 0 0 1-4.559-6.542 16.443 16.443 0 0 1-.956-7.902 16.71 16.71 0 0 1 4.838-9.814 16.875 16.875 0 0 1 9.895-4.755 16.726 16.726 0 0 1 6.995.66 16.661 16.661 0 0 1 6.097 3.474 16.668 16.668 0 0 1 4.14 5.624 16.585 16.585 0 0 1 0 13.632 16.667 16.667 0 0 1-4.14 5.623 8.723 8.723 0 0 0-2.197 2.936 8.68 8.68 0 0 0-.792 3.574v5.39a.927.927 0 0 1-.602.892.94.94 0 0 1-.377.06Zm-13.512-1.862h12.628v-4.46c.007-1.495.333-2.973.955-4.334a10.607 10.607 0 0 1 2.655-3.567 14.784 14.784 0 0 0 3.684-4.992 14.712 14.712 0 0 0 0-12.11 14.784 14.784 0 0 0-3.684-4.993 14.753 14.753 0 0 0-5.419-3.092 14.81 14.81 0 0 0-6.22-.581 14.955 14.955 0 0 0-8.791 4.217 14.81 14.81 0 0 0-4.29 8.719c-.3 2.374-.01 4.784.843 7.02a14.651 14.651 0 0 0 4.05 5.812 10.586 10.586 0 0 1 2.646 3.568c.618 1.362.94 2.84.943 4.334v4.459Z" fill="#696A6E"/><path d="M29.308 61.113h19.227v12.33H29.308v-12.33Z" fill="#F04461"/><path d="M48.535 74.374H29.308a.94.94 0 0 1-.662-.273.93.93 0 0 1-.274-.659V61.113a.93.93 0 0 1 .274-.659.94.94 0 0 1 .662-.273h19.227a.94.94 0 0 1 .662.273.93.93 0 0 1 .274.659v12.33a.93.93 0 0 1-.274.658.94.94 0 0 1-.662.273Zm-18.29-1.863h17.353V62.045H30.245V72.51Z" fill="#696A6E"/><path d="M48.535 65.1H29.308a.94.94 0 0 1-.662-.272.929.929 0 0 1 .662-1.59h19.227a.94.94 0 0 1 .662.273.93.93 0 0 1-.662 1.59Zm0 2.806H29.308a.94.94 0 0 1-.662-.273.929.929 0 0 1 .662-1.59h19.227a.94.94 0 0 1 .662.272.93.93 0 0 1-.662 1.59Zm0 2.815H29.308a.94.94 0 0 1-.662-.273.93.93 0 0 1 .662-1.59h19.227a.94.94 0 0 1 .662.273.93.93 0 0 1-.662 1.59Zm-12.65-8.677a.94.94 0 0 1-.662-.272.93.93 0 0 1-.274-.659V33.252a.93.93 0 0 1 .274-.66.94.94 0 0 1 1.599.66v27.861a.93.93 0 0 1-.274.659.94.94 0 0 1-.663.273Zm6.073 0a.94.94 0 0 1-.663-.272.93.93 0 0 1-.274-.659V33.252a.93.93 0 0 1 .274-.66.94.94 0 0 1 1.6.66v27.861a.93.93 0 0 1-.275.659.94.94 0 0 1-.662.273Z" fill="#696A6E"/><path d="M44.125 34.748H33.738a.94.94 0 0 1-.662-.273.929.929 0 0 1 0-1.317.94.94 0 0 1 .662-.273h10.387a.94.94 0 0 1 .662.273.93.93 0 0 1-.662 1.59Z" fill="#696A6E"/><path d="M25.404 11.272a5.669 5.669 0 0 0-.7-2.717 5.706 5.706 0 0 0-1.92-2.056 5.745 5.745 0 0 0-7.66 1.334 5.678 5.678 0 0 0-.833 5.374 5.693 5.693 0 0 0 1.578 2.325 3.455 3.455 0 0 1 1.2 2.606v1.947h5.262v-1.947a3.512 3.512 0 0 1 1.189-2.616 5.625 5.625 0 0 0 1.884-4.25Z" fill="#fff"/><path d="M22.29 21.016h-5.263a.94.94 0 0 1-.662-.272.93.93 0 0 1-.274-.66v-1.946a2.565 2.565 0 0 0-.884-1.915 6.63 6.63 0 0 1-2.053-3.38 6.602 6.602 0 0 1 .24-3.94 6.642 6.642 0 0 1 2.448-3.108 6.698 6.698 0 0 1 7.58 0 6.641 6.641 0 0 1 2.448 3.108 6.602 6.602 0 0 1 .24 3.94 6.628 6.628 0 0 1-2.053 3.38 2.567 2.567 0 0 0-.873 1.915v1.947a.939.939 0 0 1-.894.931Zm-4.284-1.863h3.346v-1.046a4.417 4.417 0 0 1 1.505-3.308 4.753 4.753 0 0 0 1.606-3.553 4.73 4.73 0 0 0-1.606-3.553 4.733 4.733 0 0 0-3.746-1.183 4.802 4.802 0 0 0-2.498 1.058 4.761 4.761 0 0 0-1.517 2.24 4.738 4.738 0 0 0 1.384 4.991 4.408 4.408 0 0 1 1.515 3.308l.011 1.046Z" fill="#696A6E"/><path d="M16.196 20.085h6.956v4.459h-6.956v-4.46Z" fill="#F04461"/><path d="M23.152 25.486h-6.956a.94.94 0 0 1-.662-.273.93.93 0 0 1-.275-.659v-4.47a.94.94 0 0 1 .937-.931h6.956a.94.94 0 0 1 .662.273.929.929 0 0 1 .274.659v4.47a.929.929 0 0 1-.274.658.94.94 0 0 1-.662.273Zm-6.02-1.863h5.083v-2.607h-5.082v2.607Z" fill="#696A6E"/><path d="M19.68 21.016a.94.94 0 0 1-.663-.272.93.93 0 0 1-.274-.66v-8.288a.93.93 0 0 1 .274-.66.94.94 0 0 1 1.599.66v8.289a.929.929 0 0 1-.274.659.939.939 0 0 1-.663.272Z" fill="#696A6E"/><path d="M19.68 12.727a.94.94 0 0 1-.664-.272l-1.978-1.989a.93.93 0 0 1 .663-1.592.94.94 0 0 1 .663.274l1.978 1.967a.931.931 0 0 1 0 1.319.96.96 0 0 1-.663.293Z" fill="#696A6E"/><path d="M19.68 12.727a.94.94 0 0 1-.867-.575.927.927 0 0 1 .203-1.016l2.031-1.967a.937.937 0 0 1 1.022-.203.937.937 0 0 1 .304.203.95.95 0 0 1 0 1.318l-2.03 1.968a.96.96 0 0 1-.664.272Zm19.184 5.066a.94.94 0 0 1-.663-.273.93.93 0 0 1-.274-.659V13.21c0-.248.099-.484.274-.66a.94.94 0 0 1 1.6.66v3.684a.93.93 0 0 1-.286.638.94.94 0 0 1-.651.262Zm5.261.638a.75.75 0 0 1-.21 0 .928.928 0 0 1-.71-.756.915.915 0 0 1 .015-.364l.853-3.58a.939.939 0 0 1 .435-.608.949.949 0 0 1 .743-.103.93.93 0 0 1 .584.415.918.918 0 0 1 .111.705l-.852 3.58a.932.932 0 0 1-.969.711Zm5.336 1.968a.93.93 0 0 1-.81-.443.917.917 0 0 1-.022-.918l1.716-3.265a.932.932 0 0 1 .927-.55.94.94 0 0 1 .833.684.927.927 0 0 1-.108.735l-1.747 3.244a.924.924 0 0 1-.79.513Zm4.378 3.014a.929.929 0 0 1-.935-.872.939.939 0 0 1 .23-.677l2.43-2.763a.949.949 0 0 1 1.327-.094.933.933 0 0 1 .269 1.003.93.93 0 0 1-.185.316l-2.431 2.763a.915.915 0 0 1-.705.324Zm3.462 3.8a.961.961 0 0 1-.768-.388.927.927 0 0 1 .21-1.298l3-2.156a.937.937 0 0 1 1.13-.143.935.935 0 0 1 .452.647.925.925 0 0 1-.208.76.937.937 0 0 1-.322.243l-2.915 2.125a.972.972 0 0 1-.58.21ZM19.995 3.306a.94.94 0 0 1-.662-.272.93.93 0 0 1-.275-.66V.933a.93.93 0 0 1 .275-.66.94.94 0 0 1 1.599.66v1.444a.93.93 0 0 1-.275.659.94.94 0 0 1-.662.272Zm-4.146 1.016a.951.951 0 0 1-.832-.503l-.673-1.277a.916.916 0 0 1 .39-1.256.941.941 0 0 1 1.262.388l.673 1.277a.927.927 0 0 1-.389 1.235.92.92 0 0 1-.431.136ZM12.755 6.98a.95.95 0 0 1-.548-.178l-1.178-.848a.937.937 0 0 1-.51-.6.926.926 0 0 1 .431-1.05.94.94 0 0 1 1.131.143l1.179.848a.923.923 0 0 1 .365.968.918.918 0 0 1-.155.33.935.935 0 0 1-.715.387Z" fill="#696A6E"/></g><defs><clipPath id="ca"><path fill="#fff" d="M0 0h80v79H0z"/></clipPath></defs></symbol><symbol fill="none" viewBox="0 0 75 80" id="why-03" xmlns="http://www.w3.org/2000/svg"><g clip-path="url(#da)"><path d="M29.777 19.017H0V14.56h35.794v2.715l-6.016 1.743Zm-8.612 8.347H0v-4.448h23.994l-2.829 4.448ZM0 31.262h19.82v4.449H0v-4.448Zm23.686 12.806H0v-4.459h21.218l2.468 4.459ZM0 47.966h35.794v4.448H0v-4.448Z" fill="#ABB1B4"/><path d="M35.477 49.815a16.572 16.572 0 0 1-7.803-1.931 16.52 16.52 0 0 1-5.968-5.374 16.466 16.466 0 0 1-1.552-15.48 16.496 16.496 0 0 1 4.782-6.446 16.578 16.578 0 0 1 15.296-3.046 16.545 16.545 0 0 1 6.897 4.12 16.48 16.48 0 0 1 4.526 8.436c.64 3.195.316 6.509-.931 9.521a16.502 16.502 0 0 1-6.074 7.404 16.567 16.567 0 0 1-9.173 2.796Zm0-31.104c-3.39 0-6.674 1.173-9.294 3.318a14.605 14.605 0 0 0-5.074 8.445 14.578 14.578 0 0 0 1.45 9.738 14.637 14.637 0 0 0 7.314 6.61 14.687 14.687 0 0 0 9.86.483 14.647 14.647 0 0 0 7.927-5.865 14.582 14.582 0 0 0-1.823-18.45 14.588 14.588 0 0 0-10.36-4.279Z" fill="#696A6E"/><path d="M35.477 44.87c6.394 0 11.578-5.17 11.578-11.547 0-6.378-5.184-11.548-11.578-11.548-6.395 0-11.579 5.17-11.579 11.548 0 6.377 5.184 11.548 11.579 11.548Z" fill="#fff"/><path d="M35.477 45.81c-2.059 0-4.086-.507-5.901-1.475a12.51 12.51 0 0 1-4.507-4.076 12.468 12.468 0 0 1-1.156-11.716 12.49 12.49 0 0 1 3.625-4.873 12.554 12.554 0 0 1 11.576-2.298 12.527 12.527 0 0 1 5.219 3.118 12.458 12.458 0 0 1 2.716 13.612 12.496 12.496 0 0 1-4.614 5.606 12.544 12.544 0 0 1-6.958 2.103Zm0-23.095a10.61 10.61 0 0 0-6.713 2.408 10.541 10.541 0 0 0-2.608 13.143 10.582 10.582 0 0 0 5.287 4.776 10.62 10.62 0 0 0 7.125.35 10.59 10.59 0 0 0 5.732-4.235 10.544 10.544 0 0 0-1.302-13.336 10.595 10.595 0 0 0-7.521-3.106Z" fill="#696A6E"/><path d="M29.29 27.142a8.747 8.747 0 0 1 4.407-2.377l-4.407 2.377Z" fill="#fff"/><path d="M29.29 28.082a.944.944 0 0 1-.948-1.119.94.94 0 0 1 .26-.486 9.541 9.541 0 0 1 4.883-2.631.947.947 0 0 1 1.129.713.94.94 0 0 1-.715 1.125 7.845 7.845 0 0 0-3.941 2.113.941.941 0 0 1-.668.285Z" fill="#696A6E"/><path d="M36.388 24.628a9.16 9.16 0 0 1 2.118.507l-2.118-.507Z" fill="#fff"/><path d="M38.56 26.075a.86.86 0 0 1-.329-.053 7.608 7.608 0 0 0-1.939-.454.946.946 0 0 1-.804-.67.938.938 0 0 1 .64-1.167.945.945 0 0 1 .366-.033 9.745 9.745 0 0 1 2.394.56.952.952 0 0 1 .55 1.215.94.94 0 0 1-.879.602Z" fill="#696A6E"/><path d="m44.193 46.63 4.63-4.617 4.606 4.595-4.63 4.617-4.606-4.595Z" fill="#fff"/><path d="M48.792 52.16a.945.945 0 0 1-.667-.274l-4.598-4.596a.94.94 0 0 1 0-1.331l4.63-4.617a.944.944 0 0 1 1.334 0l4.608 4.596a.96.96 0 0 1 .195 1.026.929.929 0 0 1-.205.305l-4.63 4.617a.91.91 0 0 1-.667.275Zm-3.241-5.536 3.273 3.265 3.305-3.286-3.305-3.285-3.273 3.306Z" fill="#696A6E"/><path d="m48.135 51.88 5.954-5.94 15.723 15.682-5.955 5.939L48.135 51.88Z" fill="#F04461"/><path d="M63.856 68.505a.986.986 0 0 1-.667-.275l-15.72-15.679a.94.94 0 0 1 0-1.33l5.953-5.949a.986.986 0 0 1 1.334 0l15.72 15.69a.919.919 0 0 1 .287.665.992.992 0 0 1-.276.666l-5.964 5.937a.94.94 0 0 1-.667.275ZM49.47 51.885l14.386 14.349 4.63-4.607L54.088 47.27l-4.619 4.617Z" fill="#696A6E"/><path d="M68.41 31.21a6.602 6.602 0 0 1-3.66-1.108 6.576 6.576 0 0 1-2.427-2.95 6.555 6.555 0 0 1 1.429-7.16 6.595 6.595 0 0 1 7.18-1.425 6.585 6.585 0 0 1 2.957 2.42 6.56 6.56 0 0 1-.82 8.298 6.598 6.598 0 0 1-4.658 1.925Zm0-11.252a4.712 4.712 0 0 0-2.62.78 4.68 4.68 0 0 0-.73 7.223 4.707 4.707 0 0 0 5.132 1.02 4.7 4.7 0 0 0 2.112-1.732 4.683 4.683 0 0 0-.585-5.914 4.71 4.71 0 0 0-3.308-1.377Z" fill="#D3DADE"/><path d="M57.754 36.207a.923.923 0 0 1-.936-.94.96.96 0 0 1 .269-.666l6.673-6.645a.944.944 0 0 1 1.335 0 .95.95 0 0 1 0 1.33l-6.674 6.636a.898.898 0 0 1-.667.285ZM17.807 72.9a8.947 8.947 0 0 1-4.961-1.5 8.911 8.911 0 0 1-3.29-3.998 8.884 8.884 0 0 1 1.937-9.706 8.952 8.952 0 0 1 9.732-1.93 8.924 8.924 0 0 1 4.007 3.28 8.89 8.89 0 0 1 1.505 4.948 8.905 8.905 0 0 1-2.618 6.294 8.953 8.953 0 0 1-6.312 2.612Zm0-15.922a7.058 7.058 0 0 0-3.915 1.185 7.029 7.029 0 0 0-2.594 3.155 7.008 7.008 0 0 0 1.532 7.658 7.062 7.062 0 0 0 7.68 1.516 7.04 7.04 0 0 0 3.16-2.592 7.012 7.012 0 0 0 1.181-3.906 7.017 7.017 0 0 0-2.092-4.914 7.054 7.054 0 0 0-4.952-2.028v-.074Z" fill="#D3DADE"/><path d="M32.839 80a.923.923 0 0 1-.667-.275l-9.428-9.403a.94.94 0 0 1 0-1.331.965.965 0 0 1 1.334 0l9.428 9.403A.94.94 0 0 1 32.84 80Zm8.157-78.12H24.629a.944.944 0 0 1-.943-.94.94.94 0 0 1 .943-.94h16.367a.944.944 0 0 1 .943.94.94.94 0 0 1-.943.94Zm0 3.963H24.629a.944.944 0 0 1-.943-.94.94.94 0 0 1 .943-.941h16.367a.944.944 0 0 1 .943.94.94.94 0 0 1-.943.94Zm0 3.962H24.629a.944.944 0 0 1-.943-.94.938.938 0 0 1 .582-.87.944.944 0 0 1 .361-.071h16.367a.944.944 0 0 1 .943.94.94.94 0 0 1-.943.94Zm0 3.93H24.629a.944.944 0 0 1-.943-.94.94.94 0 0 1 .943-.94h16.367a.944.944 0 0 1 .943.94.94.94 0 0 1-.943.94ZM63.75 5.843H47.383a.944.944 0 0 1-.942-.94.94.94 0 0 1 .942-.941H63.75a.944.944 0 0 1 .943.94.939.939 0 0 1-.943.94Zm0 3.962H47.383a.944.944 0 0 1-.942-.94.939.939 0 0 1 .942-.941H63.75a.945.945 0 0 1 .943.94.938.938 0 0 1-.582.869.945.945 0 0 1-.361.072Zm0 3.93H47.383a.944.944 0 0 1-.942-.94.939.939 0 0 1 .942-.94H63.75a.944.944 0 0 1 .943.94.939.939 0 0 1-.943.94Zm0 3.994H47.383a.944.944 0 0 1-.942-.94.94.94 0 0 1 .942-.941H63.75a.944.944 0 0 1 .943.94.94.94 0 0 1-.943.94ZM51.557 64.966H33.03a.944.944 0 0 1-.943-.94.939.939 0 0 1 .943-.941h18.527a.944.944 0 0 1 .943.94.939.939 0 0 1-.943.94Zm0 3.962H33.03a.944.944 0 0 1-.943-.94.94.94 0 0 1 .943-.941h18.527a.944.944 0 0 1 .943.94.939.939 0 0 1-.943.94Z" fill="#D3DADE"/></g><defs><clipPath id="da"><path fill="#fff" d="M0 0h75v80H0z"/></clipPath></defs></symbol><symbol fill="none" viewBox="0 0 73 80" id="why-04" xmlns="http://www.w3.org/2000/svg"><g clip-path="url(#ea)"><path d="M19.82 4.779h4.629v70.822H19.82V4.78Zm-8.564 36.403h4.628v34.42h-4.628v-34.42ZM2.702 65.159H7.33v10.442H2.702V65.16Z" fill="#ABB1B4"/><path d="M70.166 38.448a.904.904 0 0 1-.642-.268.918.918 0 0 1-.266-.647v-3.895c0-.242.096-.475.266-.647a.904.904 0 0 1 1.283 0c.17.172.266.405.266.647v3.895a.918.918 0 0 1-.266.647.904.904 0 0 1-.641.268Z" fill="#D3DADE"/><path d="M72.093 36.495h-3.855a.904.904 0 0 1-.641-.267.918.918 0 0 1 0-1.294.904.904 0 0 1 .642-.268h3.853c.241 0 .472.096.642.268a.918.918 0 0 1 0 1.294.904.904 0 0 1-.641.267ZM4.72 28.448a.904.904 0 0 1-.641-.268.919.919 0 0 1-.266-.647v-7.677c0-.243.096-.475.266-.647a.904.904 0 0 1 1.283 0c.17.172.266.404.266.647v7.677a.919.919 0 0 1-.266.647.904.904 0 0 1-.642.268Z" fill="#D3DADE"/><path d="M8.523 24.604H.907a.904.904 0 0 1-.641-.268.919.919 0 0 1 0-1.293.904.904 0 0 1 .641-.268h7.616c.241 0 .472.096.642.268a.919.919 0 0 1 0 1.293.904.904 0 0 1-.642.268Zm4.089 13.258a.9.9 0 0 1-.642-.268.917.917 0 0 1-.266-.646v-6.62c0-.242.096-.474.266-.646a.904.904 0 0 1 1.284 0c.17.172.265.404.265.647v6.67a.918.918 0 0 1-.283.614.904.904 0 0 1-.624.25Z" fill="#D3DADE"/><path d="M15.895 34.553H9.329a.904.904 0 0 1-.642-.268.918.918 0 0 1 0-1.294.904.904 0 0 1 .642-.267h6.566c.24 0 .471.096.641.267a.918.918 0 0 1 0 1.294.904.904 0 0 1-.641.268Z" fill="#D3DADE"/><path d="M56.239 64.892 59.5 66.25a21.02 21.02 0 0 0 1.56-7.955h-3.517a17.149 17.149 0 0 0-1.316-6.598l3.273-1.336a20.776 20.776 0 0 0-4.282-6.526l-.163-.247-2.508 2.528a17.1 17.1 0 0 0-5.537-3.74l1.326-3.32a20.433 20.433 0 0 0-7.902-1.583v3.638a16.685 16.685 0 0 0-6.535 1.316l-1.356-3.372a20.4 20.4 0 0 0-3.579 1.933c-1.118.75-2.16 1.61-3.11 2.569l2.499 2.518a17.41 17.41 0 0 0-3.712 5.591l-3.231-1.305a20.823 20.823 0 0 0-1.56 7.955h3.517a17.067 17.067 0 0 0 1.315 6.587l-3.272 1.347a20.946 20.946 0 0 0 4.445 6.721l2.508-2.518.459.452a17.231 17.231 0 0 0 5.097 3.29l-1.355 3.288a20.422 20.422 0 0 0 7.87 1.655v-3.608a16.92 16.92 0 0 0 6.546-1.315l1.356 3.289a20.594 20.594 0 0 0 6.719-4.533l-2.498-2.518a17.37 17.37 0 0 0 3.68-5.56Z" fill="#fff"/><path d="M40.435 80a21.182 21.182 0 0 1-8.238-1.655.921.921 0 0 1-.49-1.192l1.02-2.467a18.006 18.006 0 0 1-4.343-2.939l-1.876 1.891a.907.907 0 0 1-.99.199.907.907 0 0 1-.294-.199 21.594 21.594 0 0 1-4.67-7.04.922.922 0 0 1 .195-.995.886.886 0 0 1 .295-.197l2.446-1.028a18.392 18.392 0 0 1-1.02-5.139h-2.65a.904.904 0 0 1-.642-.267.918.918 0 0 1-.265-.647c-.006-2.85.549-5.672 1.63-8.304a.915.915 0 0 1 .489-.5.901.901 0 0 1 .695-.004l2.447 1.028a18.038 18.038 0 0 1 2.916-4.389l-1.877-1.963a.904.904 0 0 1-.196-.99.905.905 0 0 1 .197-.295 20.93 20.93 0 0 1 3.252-2.692 21.468 21.468 0 0 1 3.731-2.056.821.821 0 0 1 .694 0 .887.887 0 0 1 .49.494L34.4 41.11a17.506 17.506 0 0 1 5.097-1.028v-2.58c0-.242.096-.475.266-.646a.904.904 0 0 1 .642-.268 21.191 21.191 0 0 1 8.248 1.654.897.897 0 0 1 .493.493.911.911 0 0 1-.004.7l-1.02 2.466a17.874 17.874 0 0 1 4.354 2.94l1.876-1.891a.898.898 0 0 1 .638-.268.892.892 0 0 1 .637.268l.163.164.071.093A21.598 21.598 0 0 1 60.307 50a.921.921 0 0 1 0 .699.921.921 0 0 1-.49.493L57.37 52.22a17.958 17.958 0 0 1 1.02 5.139h2.64a.9.9 0 0 1 .642.268.915.915 0 0 1 .266.646 21.827 21.827 0 0 1-1.632 8.305.916.916 0 0 1-.494.497.902.902 0 0 1-.698-.004l-2.437-1.028a18.04 18.04 0 0 1-2.916 4.389l1.876 1.88a.94.94 0 0 1 0 1.295 21.399 21.399 0 0 1-6.984 4.707.91.91 0 0 1-.697 0 .921.921 0 0 1-.496-.493l-1.02-2.456a17.84 17.84 0 0 1-5.097 1.028v2.744a.918.918 0 0 1-.283.614.903.903 0 0 1-.625.249Zm-6.698-3.011a19.607 19.607 0 0 0 5.791 1.12v-2.58c0-.242.096-.475.266-.647.17-.171.4-.267.641-.267a16.018 16.018 0 0 0 6.2-1.244.9.9 0 0 1 1.182.493l1.02 2.426a19.894 19.894 0 0 0 4.893-3.32l-1.845-1.85a.913.913 0 0 1-.267-.647.922.922 0 0 1 .267-.648 16.278 16.278 0 0 0 3.507-5.293.921.921 0 0 1 1.193-.493l2.406 1.028a19.968 19.968 0 0 0 1.163-5.858h-2.61a.903.903 0 0 1-.642-.268.918.918 0 0 1-.266-.647c.002-2.146-.42-4.27-1.244-6.249a.922.922 0 0 1 0-.699.922.922 0 0 1 .49-.493l2.406-1.028a19.78 19.78 0 0 0-3.232-4.912l-1.846 1.85a.878.878 0 0 1-.642.267.9.9 0 0 1-.642-.267 15.958 15.958 0 0 0-5.24-3.546.921.921 0 0 1-.49-1.192l1.02-2.426a19.61 19.61 0 0 0-5.802-1.161v2.672a.918.918 0 0 1-.266.647.904.904 0 0 1-.641.268 15.814 15.814 0 0 0-6.189 1.243.9.9 0 0 1-.693 0 .941.941 0 0 1-.5-.493l-1.02-2.426a20.149 20.149 0 0 0-4.914 3.31l1.846 1.85a.915.915 0 0 1 .197.998.915.915 0 0 1-.197.297 16.582 16.582 0 0 0-3.548 5.241.906.906 0 0 1-.489.497.892.892 0 0 1-.694-.004L21.9 51.511a19.574 19.574 0 0 0-1.142 5.837h2.59c.24 0 .471.097.641.268.17.172.266.404.266.647-.01 2.152.41 4.284 1.234 6.27a.922.922 0 0 1 0 .698.942.942 0 0 1-.49.504l-2.406 1.028a19.539 19.539 0 0 0 3.273 4.953l1.856-1.86a.896.896 0 0 1 .982-.198c.11.046.209.113.292.198l.449.432a16.297 16.297 0 0 0 4.802 3.083c.221.093.397.27.489.494a.921.921 0 0 1 0 .698l-1 2.426Z" fill="#696A6E"/><path d="M42.821 56.105a3.196 3.196 0 0 0-2.255-.957 3.174 3.174 0 0 0-2.267.931 3.225 3.225 0 0 0-.949 2.274 3.247 3.247 0 0 0 .924 2.284c.585.553 1.359.859 2.161.853a3.173 3.173 0 0 0 1.754-.51 3.21 3.21 0 0 0 1.189-1.395 3.24 3.24 0 0 0-.557-3.48Z" fill="#F04461"/><path d="M40.436 62.425a4.055 4.055 0 0 1-2.266-.692 4.104 4.104 0 0 1-1.502-1.845 4.141 4.141 0 0 1 .884-4.48 4.049 4.049 0 0 1 4.444-.891 4.086 4.086 0 0 1 1.83 1.514 4.134 4.134 0 0 1-.507 5.19 4.062 4.062 0 0 1-2.883 1.205Zm0-6.444c-.527 0-1.038.183-1.447.519a2.328 2.328 0 0 0-.591 2.856c.242.471.637.845 1.12 1.057.483.213 1.024.251 1.532.109a2.293 2.293 0 0 0 1.257-.89 2.326 2.326 0 0 0-.19-2.91 2.334 2.334 0 0 0-1.681-.74Z" fill="#696A6E"/><path d="m54.73 19.764 1.529.637a9.852 9.852 0 0 0 .734-3.73h-1.652c0-1.06-.212-2.109-.622-3.084l1.54-.648a10.068 10.068 0 0 0-2.04-3.083l-.09-.103-1.112 1.203a7.925 7.925 0 0 0-2.64-1.706l.6-1.604a9.69 9.69 0 0 0-3.71-.74v1.665a8.1 8.1 0 0 0-3.06.617l-.631-1.542a9.529 9.529 0 0 0-1.682.915 9.195 9.195 0 0 0-1.428 1.203l1.173 1.181a8.042 8.042 0 0 0-1.744 2.632l-1.53-.648a9.717 9.717 0 0 0-.743 3.741h1.661a8.009 8.009 0 0 0 .612 3.083l-1.53.638a9.625 9.625 0 0 0 2.101 3.165l1.173-1.182.214.216a8.017 8.017 0 0 0 2.386 1.542l-.633 1.562a9.457 9.457 0 0 0 3.701.75v-1.685a7.794 7.794 0 0 0 3.059-.617l.612 1.552a9.65 9.65 0 0 0 3.14-2.117l-1.101-1.193a8.166 8.166 0 0 0 1.713-2.62Z" fill="#fff"/><path d="M47.307 27.348a10.51 10.51 0 0 1-4.078-.811.921.921 0 0 1-.408-1.203l.296-.74a9.032 9.032 0 0 1-1.448-.956l-.56.565a.908.908 0 0 1-.99.2.908.908 0 0 1-.295-.2 10.705 10.705 0 0 1-2.304-3.463.912.912 0 0 1 .194-1.016.897.897 0 0 1 .305-.197l.734-.308a9.32 9.32 0 0 1-.336-1.665h-.785a.904.904 0 0 1-.642-.268.918.918 0 0 1-.266-.647c-.007-1.41.264-2.807.796-4.11a.924.924 0 0 1 .52-.478.913.913 0 0 1 .703.035l.734.309c.264-.501.578-.973.938-1.408l-.56-.576a.885.885 0 0 1-.266-.647.92.92 0 0 1 .265-.648c.488-.488 1.02-.929 1.59-1.315.58-.403 1.199-.748 1.846-1.028a.9.9 0 0 1 1.183.493l.306.74c.539-.16 1.092-.27 1.651-.329v-.77c0-.243.096-.476.266-.647.17-.172.401-.268.642-.268a10.56 10.56 0 0 1 4.078.812c.221.093.397.27.489.494a.921.921 0 0 1 0 .698l-.306.75c.496.268.964.585 1.397.946l.571-.576a.924.924 0 0 1 1.285 0l.092.123c.916.97 1.646 2.102 2.15 3.34a.932.932 0 0 1-.489 1.203l-.733.298c.163.546.272 1.107.326 1.675h.795c.24 0 .471.097.642.268.17.172.265.404.265.647.004 1.41-.27 2.808-.805 4.111a.915.915 0 0 1-.488.499.902.902 0 0 1-.695.005l-.734-.309a9.99 9.99 0 0 1-.948 1.408l.57.566a.94.94 0 0 1 0 1.295 10.607 10.607 0 0 1-3.435 2.322.9.9 0 0 1-.693 0 .962.962 0 0 1-.5-.503l-.295-.74a9.175 9.175 0 0 1-1.662.339v.802a.918.918 0 0 1-.277.627.904.904 0 0 1-.63.256ZM44.86 25.15a8.382 8.382 0 0 0 1.59.319v-.71c0-.242.096-.475.267-.646.17-.172.4-.268.641-.268.934 0 1.86-.186 2.722-.545a.911.911 0 0 1 1.193.493l.265.658c.478-.264.932-.57 1.356-.915l-.5-.503a.885.885 0 0 1-.264-.648.92.92 0 0 1 .265-.647 7.094 7.094 0 0 0 1.54-2.323.91.91 0 0 1 1.121-.493l.642.267a7.82 7.82 0 0 0 .377-1.603h-.693a.904.904 0 0 1-.642-.268.919.919 0 0 1-.265-.647 7.047 7.047 0 0 0-.55-2.744.921.921 0 0 1 0-.699.942.942 0 0 1 .489-.504l.652-.267a8.046 8.046 0 0 0-.907-1.356l-.5.503a.913.913 0 0 1-.642.268.954.954 0 0 1-.643-.268 6.9 6.9 0 0 0-2.304-1.562.921.921 0 0 1-.49-1.192l.235-.627a8.495 8.495 0 0 0-1.6-.319v.7a.918.918 0 0 1-.266.646.903.903 0 0 1-.642.268 6.896 6.896 0 0 0-2.722.555.9.9 0 0 1-1.183-.493l-.275-.658-.703.432a7 7 0 0 0-.643.483l.5.493a.97.97 0 0 1 .265.647.928.928 0 0 1-.265.648 7.117 7.117 0 0 0-1.499 2.302.901.901 0 0 1-1.183.493l-.652-.277a9.605 9.605 0 0 0-.316 1.613h.703c.241 0 .472.097.642.268.17.172.266.404.266.647 0 .942.184 1.874.54 2.744a.922.922 0 0 1-.195.996.887.887 0 0 1-.294.196l-.653.278c.26.48.564.934.908 1.357l.5-.504a.905.905 0 0 1 1.284 0l.194.195a7.181 7.181 0 0 0 2.11 1.367c.221.093.397.271.489.494a.921.921 0 0 1 0 .698l-.265.658Z" fill="#696A6E"/><path d="M48.408 15.642a1.496 1.496 0 0 0-1.648-.381 1.5 1.5 0 0 0-.692.556 1.52 1.52 0 0 0-.134 1.458c.082.191.203.363.354.505.28.255.642.398 1.02.4.291.001.577-.084.821-.245a1.508 1.508 0 0 0 .659-1.517c-.05-.29-.181-.56-.38-.776Z" fill="#F04461"/><path d="M47.307 19.096a2.375 2.375 0 0 1-1.63-.596 2.444 2.444 0 0 1-.604-2.662c.175-.454.482-.843.881-1.118.399-.275.87-.423 1.353-.424.638.003 1.248.26 1.699.713.45.455.705 1.07.708 1.712a2.435 2.435 0 0 1-.723 1.682 2.396 2.396 0 0 1-1.684.693Zm0-3.022a.589.589 0 0 0-.418.175.599.599 0 0 0 .33 1.012.608.608 0 0 0 .605-.262.62.62 0 0 0 .105-.329.559.559 0 0 0-.153-.4.581.581 0 0 0-.469-.196ZM7.983 53.237a.933.933 0 0 1-.611-.236.918.918 0 0 1-.062-1.285l22.114-24.8a.897.897 0 0 1 .949-.256l28.343 9.085 6.005-30.421a.918.918 0 0 1 .388-.583.904.904 0 0 1 1.262.254c.133.202.182.45.135.688l-6.21 31.429a.91.91 0 0 1-.786.728.88.88 0 0 1-.376-.04l-28.751-9.25L8.656 52.93a.897.897 0 0 1-.673.307Z" fill="#696A6E"/><path d="M12.53 52.323a4.62 4.62 0 0 1-.763 2.556 4.566 4.566 0 0 1-2.045 1.696 4.525 4.525 0 0 1-4.972-.994 4.628 4.628 0 0 1-.986-5.011 4.586 4.586 0 0 1 1.683-2.061 4.531 4.531 0 0 1 4.276-.421c.552.23 1.053.568 1.475.993a4.588 4.588 0 0 1 1.332 3.242Z" fill="#F04461"/><path d="M7.983 57.821a5.424 5.424 0 0 1-3.03-.926 5.489 5.489 0 0 1-2.01-2.468 5.54 5.54 0 0 1-.31-3.177 5.512 5.512 0 0 1 1.493-2.815 5.442 5.442 0 0 1 2.793-1.505 5.415 5.415 0 0 1 3.151.313 5.464 5.464 0 0 1 2.448 2.025c.6.904.92 1.967.92 3.055a5.53 5.53 0 0 1-1.601 3.885 5.443 5.443 0 0 1-3.854 1.613Zm0-9.167a3.62 3.62 0 0 0-2.022.618 3.663 3.663 0 0 0-1.34 1.647 3.697 3.697 0 0 0 .788 3.998 3.613 3.613 0 0 0 3.967.795 3.646 3.646 0 0 0 1.633-1.35 3.69 3.69 0 0 0 .614-2.04 3.694 3.694 0 0 0-1.07-2.59 3.635 3.635 0 0 0-2.57-1.078Z" fill="#696A6E"/><path d="M34.665 27.533a4.61 4.61 0 0 1-.772 2.544 4.554 4.554 0 0 1-2.042 1.684 4.513 4.513 0 0 1-4.952-1 4.595 4.595 0 0 1-1.242-2.347 4.618 4.618 0 0 1 .26-2.647 4.576 4.576 0 0 1 1.675-2.056 4.521 4.521 0 0 1 5.745.575 4.615 4.615 0 0 1 1.328 3.248Z" fill="#F04461"/><path d="M30.097 33.032a5.435 5.435 0 0 1-3.04-.924 5.5 5.5 0 0 1-2.017-2.472 5.55 5.55 0 0 1-.313-3.185 5.522 5.522 0 0 1 1.496-2.823 5.45 5.45 0 0 1 2.8-1.508 5.424 5.424 0 0 1 3.16.316 5.475 5.475 0 0 1 2.452 2.033 5.54 5.54 0 0 1-.684 6.95 5.443 5.443 0 0 1-3.854 1.613Zm0-9.178a3.629 3.629 0 0 0-2.03.615 3.674 3.674 0 0 0-1.35 1.65 3.707 3.707 0 0 0 .785 4.012 3.624 3.624 0 0 0 3.979.802 3.657 3.657 0 0 0 1.64-1.354 3.7 3.7 0 0 0-.45-4.644 3.635 3.635 0 0 0-2.574-1.08Z" fill="#696A6E"/><path d="M59.41 41.51c2.51 0 4.547-2.051 4.547-4.583s-2.036-4.584-4.547-4.584c-2.512 0-4.548 2.052-4.548 4.584 0 2.532 2.036 4.584 4.547 4.584Z" fill="#F04461"/><path d="M59.41 42.436a5.434 5.434 0 0 1-3.04-.924 5.5 5.5 0 0 1-2.017-2.47 5.55 5.55 0 0 1-.315-3.183c.21-1.07.73-2.052 1.494-2.824a5.451 5.451 0 0 1 2.798-1.51 5.425 5.425 0 0 1 3.158.312 5.475 5.475 0 0 1 2.455 2.028 5.54 5.54 0 0 1-.676 6.954 5.443 5.443 0 0 1-3.857 1.617Zm0-9.178a3.63 3.63 0 0 0-2.032.616 3.672 3.672 0 0 0-1.349 1.65 3.707 3.707 0 0 0 .79 4.015 3.623 3.623 0 0 0 3.982.796 3.656 3.656 0 0 0 1.637-1.36 3.701 3.701 0 0 0-.458-4.64 3.635 3.635 0 0 0-2.57-1.077Z" fill="#696A6E"/><path d="M70.166 5.498a4.62 4.62 0 0 1-.764 2.557 4.566 4.566 0 0 1-2.045 1.696c-.833.35-1.75.44-2.635.264a4.547 4.547 0 0 1-2.336-1.258 4.628 4.628 0 0 1-.986-5.011 4.586 4.586 0 0 1 1.683-2.061 4.531 4.531 0 0 1 5.748.575 4.613 4.613 0 0 1 1.335 3.238Z" fill="#F04461"/><path d="M65.619 11.007a5.434 5.434 0 0 1-3.04-.923 5.5 5.5 0 0 1-2.017-2.47 5.55 5.55 0 0 1-.315-3.184c.21-1.07.73-2.052 1.494-2.823a5.451 5.451 0 0 1 2.797-1.51 5.424 5.424 0 0 1 3.16.311 5.475 5.475 0 0 1 2.454 2.029 5.54 5.54 0 0 1-.676 6.953 5.443 5.443 0 0 1-3.857 1.617Zm0-9.178a3.63 3.63 0 0 0-2.032.616 3.673 3.673 0 0 0-1.349 1.651 3.706 3.706 0 0 0 .79 4.014 3.623 3.623 0 0 0 3.983.796 3.657 3.657 0 0 0 1.636-1.36 3.7 3.7 0 0 0-.458-4.639 3.635 3.635 0 0 0-2.57-1.078Z" fill="#696A6E"/><path d="M67.862 53.289a.904.904 0 0 1-.642-.268.918.918 0 0 1-.266-.647v-6.608c0-.243.096-.476.266-.647a.903.903 0 0 1 1.283 0c.17.171.266.404.266.647v6.65a.918.918 0 0 1-.28.62.904.904 0 0 1-.627.253Z" fill="#D3DADE"/><path d="M71.144 49.98h-6.566a.904.904 0 0 1-.641-.268.918.918 0 0 1 0-1.294c.17-.172.4-.268.641-.268h6.566c.24 0 .472.096.642.268a.919.919 0 0 1 0 1.294.904.904 0 0 1-.642.267Z" fill="#D3DADE"/></g><defs><clipPath id="ea"><path fill="#fff" d="M0 0h73v80H0z"/></clipPath></defs></symbol></svg>